<svg xmlns="http://www.w3.org/2000/svg" xmlns:xlink="http://www.w3.org/1999/xlink" version="1.1" style="" xml:space="preserve" width="52.31531547631221" height="40"><rect id="backgroundrect" width="100%" height="100%" x="0" y="0" fill="none" stroke="none" class="" style=""/>
<style type="text/css">
	.st0{fill:#1A4492;}
	.st1{fill:#FFFFFF;}
	.st2{fill:#E84E13;}
	.st3{fill-rule:evenodd;clip-rule:evenodd;fill:#E84E13;}
	.st4{fill:#575756;}
</style>

<g class="currentLayer" style=""><title>Layer 1</title><g id="svg_1" class="">
	<g id="svg_2">
		<g id="svg_3">
			<g id="svg_4">
				
					<ellipse transform="matrix(1,-0.004033755,0.004033755,1,-0.03700165,0.1555) " class="st0" cx="24.8282559514924" cy="9.964276210980755" rx="4.5" ry="4.5" id="svg_5"/>
			</g>
			<g id="svg_6">
				<g id="svg_7">
					
						<ellipse transform="matrix(1,-0.004048998,0.004048998,1,-0.03713957,0.156) " class="st0" cx="24.82824666988987" cy="9.964067775005033" rx="3.4000000953674316" ry="3.4000000953674316" id="svg_8"/>
				</g>
				<g id="svg_9">
					<path class="st1" d="M23.730935478210448,13.419424486160278 c-1.5,-0.5 -2.4,-1.9 -2.4,-3.4 c0,-2 1.6,-3.6 3.6,-3.6 c0.4,0 0.8,0.1 1.2,0.2 c1.5,0.5 2.4,1.9 2.4,3.4 c0,1 -0.4,1.9 -1,2.6 c-0.7000000000000001,0.7000000000000001 -1.6,1.1 -2.6,1.1 C24.43093547821045,13.619424486160279 24.030935478210452,13.519424486160279 23.730935478210448,13.419424486160278 zM25.93093547821045,6.9194244861602785 C25.530935478210452,6.819424486160278 25.230935478210448,6.719424486160278 24.83093547821045,6.719424486160278 c-1.8,0 -3.2,1.5 -3.2,3.2 c0,1.4 0.9,2.6 2.2,3 c0.30000000000000004,0.1 0.7000000000000001,0.2 1.1,0.2 c0.9,0 1.7000000000000002,-0.30000000000000004 2.3,-1 c0.6000000000000001,-0.6000000000000001 0.9,-1.4 0.9,-2.3 C28.030935478210452,8.619424486160279 27.230935478210448,7.319424486160278 25.93093547821045,6.9194244861602785 z" id="svg_10"/>
				</g>
			</g>
		</g>
		<g id="svg_11">
			<path class="st2" d="M23.730935478210448,7.9194244861602785 l2.5,0 v0 c-0.1,0.30000000000000004 -0.2,0.4 -0.2,0.4 l-0.7000000000000001,0 C25.33093547821045,8.419424486160278 25.43093547821045,8.619424486160279 25.43093547821045,8.719424486160278 l0.7000000000000001,0 c0,0 0,0 0,0 c-0.2,0.30000000000000004 -0.2,0.4 -0.2,0.4 l-0.5,0 c0,0.1 -0.1,0.30000000000000004 -0.2,0.5 c-0.1,0.2 -0.30000000000000004,0.30000000000000004 -0.4,0.4 c-0.2,0.1 -0.5,0.2 -0.7000000000000001,0.2 l0,0 c0,0 0.1,0.1 0.2,0.2 l1.2,1.7000000000000002 l0,0.1 c0,0 0,0 0,0 l-0.5,0 c-1,-1.3 -1.5,-1.9 -1.5,-1.9 l0,-0.4 l0,0 c0.1,0 0.2,0 0.30000000000000004,0 c0.5,0 0.9,-0.2 1,-0.6000000000000001 c0,-0.1 0,-0.1 0,-0.2 l-1.5,0 c0,0 0,0 0,0 C23.630935478210446,8.919424486160278 23.730935478210448,8.719424486160278 23.730935478210448,8.719424486160278 l1.2,0 v0 c-0.1,-0.2 -0.2,-0.30000000000000004 -0.4,-0.4 c-0.1,-0.1 -0.30000000000000004,-0.1 -0.4,-0.1 l-0.7000000000000001,0 l0,0 C23.630935478210446,8.019424486160279 23.730935478210448,7.9194244861602785 23.730935478210448,7.9194244861602785 z" id="svg_12"/>
		</g>
		<g id="svg_13">
			<g id="svg_14">
				<path class="st0" d="M9.230935478210448,22.119424486160277 h0.30000000000000004 h1.1 c0.30000000000000004,-0.5 0.4,-1.2 0.2,-1.8 l0,0 c-0.7000000000000001,0.2 -1.2,0.6000000000000001 -1.5,1.2 c-0.30000000000000004,-0.6000000000000001 -0.8,-1 -1.5,-1.2 l0,0 c-0.2,0.6000000000000001 -0.1,1.3 0.2,1.8 H9.230935478210448 z" id="svg_15"/>
			</g>
			<g id="svg_16">
				<path class="st0" d="M11.030935478210449,23.119424486160277 h-3.3 C6.0309354782104485,24.71942448616028 4.830935478210449,26.71942448616028 4.830935478210449,28.71942448616028 c0,2.5 2,2.8 4.5,2.8 c2.5,0 4.5,-0.30000000000000004 4.5,-2.8 C13.93093547821045,26.71942448616028 12.730935478210448,24.71942448616028 11.030935478210449,23.119424486160277 z" id="svg_17"/>
			</g>
			<g id="svg_18">
				<path class="st0" d="M11.230935478210448,22.71942448616028 h-3.7 c-0.1,0 -0.1,-0.1 -0.1,-0.1 c0,-0.1 0.1,-0.1 0.1,-0.1 h3.7 c0.1,0 0.1,0.1 0.1,0.1 C11.43093547821045,22.71942448616028 11.33093547821045,22.71942448616028 11.230935478210448,22.71942448616028 z" id="svg_19"/>
			</g>
		</g>
		<g id="XMLID_92_">
			<path class="st3" d="M7.430935478210451,27.619424486160277 h1.4 c-0.1,0 -0.2,0 -0.2,0.1 c-0.1,0.1 -0.2,0.2 -0.1,0.30000000000000004 c0.1,0.1 0.2,0.1 0.4,0.1 c0.2,-0.1 0.30000000000000004,-0.30000000000000004 0.5,-0.5 c0,0.2 -0.2,0.5 -0.2,0.7000000000000001 c0,0.2 0.1,0.30000000000000004 0.2,0.30000000000000004 c0.1,0 0.2,-0.1 0.2,-0.30000000000000004 c0,-0.2 -0.1,-0.4 -0.2,-0.7000000000000001 c0.2,0.1 0.30000000000000004,0.4 0.5,0.5 c0.1,0.1 0.30000000000000004,0 0.4,-0.1 c0.1,-0.1 0,-0.30000000000000004 -0.1,-0.30000000000000004 c-0.2,-0.1 -0.4,-0.1 -0.7000000000000001,-0.2 c0.2,-0.1 0.5,-0.1 0.7000000000000001,-0.2 c0.1,-0.1 0.2,-0.2 0.1,-0.30000000000000004 c-0.1,-0.1 -0.2,-0.1 -0.4,-0.1 c-0.2,0.1 -0.30000000000000004,0.30000000000000004 -0.5,0.5 c0,-0.2 0.2,-0.5 0.2,-0.7000000000000001 c0,-0.2 -0.1,-0.30000000000000004 -0.2,-0.30000000000000004 c-0.1,0 -0.2,0.1 -0.2,0.30000000000000004 c0,0.2 0.1,0.4 0.2,0.7000000000000001 c-0.2,-0.1 -0.30000000000000004,-0.4 -0.5,-0.5 c-0.1,-0.1 -0.30000000000000004,0 -0.4,0.1 c-0.1,0.1 0,0.30000000000000004 0.1,0.30000000000000004 c0.1,0 0.1,0.1 0.2,0.1 h-1.4 c0.1,-1.1 0.9,-1.9 2,-1.9 c0.7000000000000001,0 1.3,0.4 1.7000000000000002,0.9 h0.30000000000000004 c-0.4,-0.7000000000000001 -1.1,-1.1 -2,-1.1 c-1.3,0 -2.3,1 -2.3,2.3 c0,1.3 1,2.3 2.3,2.3 c0.8,0 1.6,-0.5 2,-1.1 h-0.30000000000000004 c-0.4,0.5 -1,0.9 -1.7000000000000002,0.9 C8.33093547821045,29.51942448616028 7.430935478210451,28.619424486160277 7.430935478210451,27.619424486160277 z" id="svg_20"/>
		</g>
		<g id="svg_21">
			<path class="st2" d="M14.63093547821045,34.019424486160275 H4.13093547821045 c-1.5,0 -2.8,-1.2 -2.8,-2.8 V20.31942448616028 c0,-1.5 1.2,-2.8 2.8,-2.8 h8.9 c0.2,0 0.30000000000000004,0.1 0.30000000000000004,0.30000000000000004 c0,0.2 -0.1,0.30000000000000004 -0.30000000000000004,0.30000000000000004 h-8.9 c-1.2,0 -2.2,1 -2.2,2.2 v10.9 c0,1.2 1,2.2 2.2,2.2 h10.5 c1.2,0 2.2,-1 2.2,-2.2 v-9.4 c0,-0.2 0.1,-0.30000000000000004 0.30000000000000004,-0.30000000000000004 c0.2,0 0.30000000000000004,0.1 0.30000000000000004,0.30000000000000004 v9.4 C17.43093547821045,32.71942448616028 16.13093547821045,34.019424486160275 14.63093547821045,34.019424486160275 z" id="svg_22"/>
		</g>
		<g id="svg_23">
			<path class="st2" d="M30.130935478210446,18.21942448616028 h-8.9 c-0.2,0 -0.30000000000000004,-0.1 -0.30000000000000004,-0.30000000000000004 c0,-0.2 0.1,-0.30000000000000004 0.30000000000000004,-0.30000000000000004 h8.9 c1.2,0 2.2,-1 2.2,-2.2 V4.519424486160278 c0,-1.2 -1,-2.2 -2.2,-2.2 H19.630935478210446 c-1.2,0 -2.2,1 -2.2,2.2 v9.4 c0,0.2 -0.1,0.30000000000000004 -0.30000000000000004,0.30000000000000004 c-0.2,0 -0.30000000000000004,-0.1 -0.30000000000000004,-0.30000000000000004 V4.519424486160278 c0,-1.5 1.2,-2.8 2.8,-2.8 h10.5 c1.5,0 2.8,1.2 2.8,2.8 v10.9 C32.93093547821045,16.919424486160278 31.630935478210446,18.21942448616028 30.130935478210446,18.21942448616028 z" id="svg_24"/>
		</g>
		<g id="svg_25">
			<path class="st0" d="M17.13093547821045,20.619424486160277 c-0.2,0 -0.30000000000000004,-0.1 -0.30000000000000004,-0.30000000000000004 v-4.9 c0,-0.2 0.1,-0.30000000000000004 0.30000000000000004,-0.30000000000000004 c0.2,0 0.30000000000000004,0.1 0.30000000000000004,0.30000000000000004 v4.9 C17.43093547821045,20.51942448616028 17.33093547821045,20.619424486160277 17.13093547821045,20.619424486160277 z" id="svg_26"/>
		</g>
		<g id="svg_27">
			<path class="st0" d="M19.630935478210446,18.119424486160277 h-4.9 c-0.2,0 -0.30000000000000004,-0.1 -0.30000000000000004,-0.30000000000000004 c0,-0.2 0.1,-0.30000000000000004 0.30000000000000004,-0.30000000000000004 h4.9 c0.2,0 0.30000000000000004,0.1 0.30000000000000004,0.30000000000000004 C19.93093547821045,18.01942448616028 19.83093547821045,18.119424486160277 19.630935478210446,18.119424486160277 z" id="svg_28"/>
		</g>
	</g>
	<g id="svg_29">
		<g id="svg_30">
			<g id="svg_31">
				<path class="st4" d="M35.23093547821045,22.119424486160277 L35.23093547821045,22.119424486160277 c0,-0.1 0,-0.1 -0.1,-0.2 c-0.1,0 -0.1,-0.1 -0.2,-0.1 c-0.1,0 -0.2,0 -0.2,0 c0,0 -0.1,0.1 -0.1,0.1 c0,0 0,0.1 0.1,0.1 c0.1,0 0.2,0.1 0.30000000000000004,0.1 c0.30000000000000004,0.1 0.5,0.1 0.6000000000000001,0.2 c0.1,0.1 0.1,0.2 0.1,0.4 c0,0.2 -0.1,0.30000000000000004 -0.2,0.4 c-0.1,0.1 -0.30000000000000004,0.2 -0.5,0.2 c-0.30000000000000004,0 -0.5,-0.1 -0.6000000000000001,-0.2 c-0.1,-0.1 -0.2,-0.30000000000000004 -0.2,-0.4 h0.5 c0,0.1 0,0.1 0.1,0.2 c0.1,0 0.2,0.1 0.30000000000000004,0.1 c0.1,0 0.2,0 0.2,0 c0.1,0 0.1,-0.1 0.1,-0.1 c0,0 0,-0.1 -0.1,-0.1 c-0.1,0 -0.1,-0.1 -0.30000000000000004,-0.1 c-0.30000000000000004,-0.1 -0.5,-0.1 -0.6000000000000001,-0.2 c-0.1,-0.1 -0.1,-0.2 -0.1,-0.30000000000000004 c0,-0.2 0.1,-0.30000000000000004 0.2,-0.4 c0.1,-0.1 0.30000000000000004,-0.2 0.5,-0.2 c0.2,0 0.4,0.1 0.6000000000000001,0.2 c0.1,0.1 0.2,0.2 0.2,0.4 H35.23093547821045 zM33.43093547821045,22.119424486160277 L33.43093547821045,22.119424486160277 c0,-0.1 0,-0.1 -0.1,-0.2 c-0.1,0 -0.1,-0.1 -0.2,-0.1 c-0.1,0 -0.2,0 -0.2,0 c0,0 -0.1,0.1 -0.1,0.1 c0,0 0,0.1 0.1,0.1 c0.1,0 0.2,0.1 0.30000000000000004,0.1 c0.30000000000000004,0.1 0.5,0.1 0.6000000000000001,0.2 c0.1,0.1 0.1,0.2 0.1,0.4 c0,0.2 -0.1,0.30000000000000004 -0.2,0.4 c-0.1,0.1 -0.30000000000000004,0.2 -0.5,0.2 c-0.30000000000000004,0 -0.5,-0.1 -0.6000000000000001,-0.2 c-0.1,-0.1 -0.2,-0.30000000000000004 -0.2,-0.4 h0.5 c0,0.1 0,0.1 0.1,0.2 c0.1,0 0.2,0.1 0.30000000000000004,0.1 c0.1,0 0.2,0 0.2,0 c0.1,0 0.1,-0.1 0.1,-0.1 c0,0 0,-0.1 -0.1,-0.1 C33.33093547821045,22.71942448616028 33.33093547821045,22.71942448616028 33.130935478210446,22.71942448616028 c-0.30000000000000004,-0.1 -0.5,-0.1 -0.6000000000000001,-0.2 c-0.1,-0.1 -0.1,-0.2 -0.1,-0.30000000000000004 c0,-0.2 0.1,-0.30000000000000004 0.2,-0.4 c0.1,-0.1 0.30000000000000004,-0.2 0.5,-0.2 c0.2,0 0.4,0.1 0.6000000000000001,0.2 c0.1,0.1 0.2,0.2 0.2,0.4 H33.43093547821045 zM31.530935478210452,20.919424486160278 h0.5 v0.4 h-0.5 V20.919424486160278 zM31.630935478210446,23.31942448616028 v-1.7000000000000002 h0.2 h0.2 v1.7000000000000002 h-0.2 H31.630935478210446 zM30.83093547821045,22.31942448616028 L30.83093547821045,22.31942448616028 c0,-0.1 0,-0.2 -0.1,-0.2 c-0.1,-0.1 -0.1,-0.1 -0.30000000000000004,-0.1 c-0.1,0 -0.2,0 -0.30000000000000004,0.1 c0,0.1 -0.1,0.1 -0.1,0.2 H30.83093547821045 zM30.43093547821045,23.419424486160278 c-0.30000000000000004,0 -0.5,-0.1 -0.6000000000000001,-0.2 c-0.1,-0.2 -0.2,-0.4 -0.2,-0.7000000000000001 c0,-0.30000000000000004 0.1,-0.5 0.2,-0.7000000000000001 c0.1,-0.2 0.30000000000000004,-0.2 0.6000000000000001,-0.2 c0.30000000000000004,0 0.5,0.1 0.6000000000000001,0.2 c0.1,0.2 0.2,0.4 0.2,0.7000000000000001 c0,0 0,0.1 0,0.1 h-1.2 c0,0.1 0,0.2 0.1,0.30000000000000004 c0.1,0.1 0.2,0.1 0.30000000000000004,0.1 c0.1,0 0.1,0 0.2,-0.1 c0.1,0 0.1,-0.1 0.1,-0.1 h0.5 c0,0.2 -0.1,0.30000000000000004 -0.30000000000000004,0.4 C30.83093547821045,23.31942448616028 30.630935478210446,23.419424486160278 30.43093547821045,23.419424486160278 zM27.530935478210452,23.31942448616028 l-0.5,-1.7000000000000002 h0.2 h0.2 l0.30000000000000004,1.3 h0 l0.30000000000000004,-1.3 h0.2 h0.2 l0.30000000000000004,1.3 l0.30000000000000004,-1.3 h0.2 h0.2 l-0.5,1.7000000000000002 h-0.2 h-0.2 l-0.30000000000000004,-1.3 h0 l-0.30000000000000004,1.3 h-0.2 H27.530935478210452 zM26.33093547821045,23.31942448616028 v-2.3 h0.2 h0.2 v2.3 h-0.2 H26.33093547821045 zM25.530935478210452,22.31942448616028 L25.530935478210452,22.31942448616028 c0,-0.1 0,-0.2 -0.1,-0.2 c-0.1,-0.1 -0.1,-0.1 -0.30000000000000004,-0.1 c-0.1,0 -0.2,0 -0.30000000000000004,0.1 c0,0.1 -0.1,0.1 -0.1,0.2 H25.530935478210452 zM25.130935478210446,23.419424486160278 c-0.30000000000000004,0 -0.5,-0.1 -0.6000000000000001,-0.2 C24.43093547821045,23.01942448616028 24.33093547821045,22.71942448616028 24.33093547821045,22.419424486160278 c0,-0.30000000000000004 0.1,-0.5 0.2,-0.7000000000000001 c0.1,-0.2 0.30000000000000004,-0.2 0.6000000000000001,-0.2 c0.30000000000000004,0 0.5,0.1 0.6000000000000001,0.2 c0.1,0.2 0.2,0.4 0.2,0.7000000000000001 c0,0 0,0.1 0,0.1 h-1.2 c0,0.1 0,0.2 0.1,0.30000000000000004 c0.1,0.1 0.2,0.1 0.30000000000000004,0.1 c0.1,0 0.1,0 0.2,-0.1 c0.1,0 0.1,-0.1 0.1,-0.1 h0.5 c0,0.2 -0.1,0.30000000000000004 -0.30000000000000004,0.4 C25.530935478210452,23.31942448616028 25.33093547821045,23.419424486160278 25.130935478210446,23.419424486160278 zM23.230935478210448,21.919424486160278 c-0.1,0 -0.2,0 -0.30000000000000004,0.1 c-0.1,0.1 -0.1,0.2 -0.1,0.4 c0,0.2 0,0.30000000000000004 0.1,0.4 c0.1,0.1 0.2,0.1 0.30000000000000004,0.1 c0.1,0 0.2,0 0.30000000000000004,-0.1 c0.1,-0.1 0.1,-0.2 0.1,-0.4 c0,-0.2 0,-0.30000000000000004 -0.1,-0.4 C23.43093547821045,22.01942448616028 23.33093547821045,21.919424486160278 23.230935478210448,21.919424486160278 zM23.130935478210446,23.419424486160278 c-0.2,0 -0.4,-0.1 -0.5,-0.30000000000000004 C22.43093547821045,22.919424486160278 22.33093547821045,22.71942448616028 22.33093547821045,22.419424486160278 c0,-0.30000000000000004 0.1,-0.5 0.2,-0.6000000000000001 c0.1,-0.2 0.30000000000000004,-0.2 0.5,-0.2 c0.2,0 0.4,0.1 0.5,0.2 l0,0 v-0.8 h0.2 h0.2 v2.3 h-0.2 h-0.2 v-0.2 l0,0 C23.530935478210452,23.31942448616028 23.33093547821045,23.419424486160278 23.130935478210446,23.419424486160278 zM20.33093547821045,23.31942448616028 L20.33093547821045,23.31942448616028 v-2.3 h1.7000000000000002 v0.2 v0.2 h-1.2 v0.5 h1.1 v0.2 v0.2 h-1.1 v0.6000000000000001 h1.3 v0.2 v0.2 H20.33093547821045 z" id="svg_32"/>
			</g>
			<g id="svg_33">
				<path class="st4" d="M50.730935478210455,22.31942448616028 L50.730935478210455,22.31942448616028 c0,-0.1 0,-0.2 -0.1,-0.2 c-0.1,-0.1 -0.1,-0.1 -0.30000000000000004,-0.1 c-0.1,0 -0.2,0 -0.30000000000000004,0.1 c0,0.1 -0.1,0.1 -0.1,0.2 H50.730935478210455 zM50.43093547821044,23.419424486160278 c-0.30000000000000004,0 -0.5,-0.1 -0.6000000000000001,-0.2 c-0.1,-0.2 -0.2,-0.4 -0.2,-0.7000000000000001 c0,-0.30000000000000004 0.1,-0.5 0.2,-0.7000000000000001 c0.1,-0.2 0.30000000000000004,-0.2 0.6000000000000001,-0.2 c0.30000000000000004,0 0.5,0.1 0.6000000000000001,0.2 c0.1,0.2 0.2,0.4 0.2,0.7000000000000001 c0,0 0,0.1 0,0.1 h-1.2 c0,0.1 0,0.2 0.1,0.30000000000000004 c0.1,0.1 0.2,0.1 0.30000000000000004,0.1 c0.1,0 0.1,0 0.2,-0.1 c0.1,0 0.1,-0.1 0.1,-0.1 h0.5 c0,0.2 -0.1,0.30000000000000004 -0.30000000000000004,0.4 C50.83093547821045,23.31942448616028 50.630935478210446,23.419424486160278 50.43093547821044,23.419424486160278 zM49.130935478210446,21.919424486160278 L49.130935478210446,21.919424486160278 v1.4 h-0.2 h-0.2 v-1.4 h-0.30000000000000004 v-0.30000000000000004 h0.30000000000000004 v-0.1 c0,-0.2 0,-0.30000000000000004 0.1,-0.4 c0.1,-0.1 0.2,-0.1 0.4,-0.1 c0.1,0 0.2,0 0.2,0 v0.4 H49.33093547821045 c-0.1,0 -0.1,0 -0.1,0 c0,0 0,0.1 0,0.2 v0.1 h0.30000000000000004 v0.30000000000000004 H49.130935478210446 zM47.73093547821045,20.919424486160278 h0.5 v0.4 h-0.5 V20.919424486160278 zM47.73093547821045,23.31942448616028 v-1.7000000000000002 h0.2 h0.2 v1.7000000000000002 h-0.2 H47.73093547821045 zM45.73093547821045,23.31942448616028 L45.73093547821045,23.31942448616028 v-2.3 h0.2 h0.2 v1.9 h1.2 v0.2 v0.2 H45.73093547821045 zM44.03093547821045,23.01942448616028 c0.1,0 0.2,0 0.30000000000000004,-0.1 c0.1,-0.1 0.1,-0.2 0.1,-0.4 c0,-0.2 0,-0.30000000000000004 -0.1,-0.4 c-0.1,-0.1 -0.2,-0.1 -0.30000000000000004,-0.1 c-0.1,0 -0.2,0 -0.30000000000000004,0.1 c-0.1,0.1 -0.1,0.2 -0.1,0.4 c0,0.2 0,0.30000000000000004 0.1,0.4 C43.83093547821045,22.919424486160278 43.93093547821045,23.01942448616028 44.03093547821045,23.01942448616028 zM44.03093547821045,23.419424486160278 c-0.30000000000000004,0 -0.5,-0.1 -0.6000000000000001,-0.2 c-0.2,-0.2 -0.2,-0.4 -0.2,-0.7000000000000001 c0,-0.30000000000000004 0.1,-0.5 0.2,-0.7000000000000001 c0.2,-0.2 0.4,-0.30000000000000004 0.6000000000000001,-0.30000000000000004 c0.30000000000000004,0 0.5,0.1 0.7000000000000001,0.30000000000000004 c0.2,0.2 0.2,0.4 0.2,0.7000000000000001 c0,0.30000000000000004 -0.1,0.5 -0.2,0.7000000000000001 C44.53093547821045,23.31942448616028 44.33093547821045,23.419424486160278 44.03093547821045,23.419424486160278 zM42.43093547821045,20.919424486160278 h0.5 v0.4 h-0.5 V20.919424486160278 zM42.43093547821045,23.31942448616028 v-1.7000000000000002 h0.2 h0.2 v1.7000000000000002 h-0.2 H42.43093547821045 zM40.53093547821045,23.31942448616028 v-2.3 h0.2 h0.2 v1.3 l0.6000000000000001,-0.7000000000000001 h0.30000000000000004 h0.30000000000000004 l-0.6000000000000001,0.7000000000000001 l0.6000000000000001,1.1 h-0.30000000000000004 h-0.30000000000000004 l-0.4,-0.7000000000000001 l-0.2,0.2 v0.5 h-0.2 H40.53093547821045 zM39.33093547821045,23.01942448616028 c0.1,0 0.2,0 0.30000000000000004,-0.1 c0.1,-0.1 0.1,-0.2 0.1,-0.4 c0,-0.2 0,-0.30000000000000004 -0.1,-0.4 c-0.1,-0.1 -0.2,-0.1 -0.30000000000000004,-0.1 c-0.1,0 -0.2,0 -0.30000000000000004,0.1 c-0.1,0.1 -0.1,0.2 -0.1,0.4 c0,0.2 0,0.30000000000000004 0.1,0.4 C39.130935478210446,22.919424486160278 39.23093547821045,23.01942448616028 39.33093547821045,23.01942448616028 zM39.33093547821045,23.419424486160278 c-0.30000000000000004,0 -0.5,-0.1 -0.6000000000000001,-0.2 c-0.2,-0.2 -0.2,-0.4 -0.2,-0.7000000000000001 c0,-0.30000000000000004 0.1,-0.5 0.2,-0.7000000000000001 c0.2,-0.2 0.4,-0.30000000000000004 0.6000000000000001,-0.30000000000000004 c0.30000000000000004,0 0.5,0.1 0.7000000000000001,0.30000000000000004 c0.2,0.2 0.2,0.4 0.2,0.7000000000000001 c0,0.30000000000000004 -0.1,0.5 -0.2,0.7000000000000001 C39.83093547821045,23.31942448616028 39.630935478210446,23.419424486160278 39.33093547821045,23.419424486160278 zM37.130935478210446,23.31942448616028 v-1.9 h-0.7000000000000001 v-0.2 v-0.2 H38.33093547821045 v0.2 v0.2 h-0.7000000000000001 v1.9 H37.33093547821045 H37.130935478210446 z" id="svg_34"/>
			</g>
		</g>
	</g>
	<g id="svg_35">
		<g id="svg_36">
			<path class="st0" d="M24.93093547821045,26.119424486160277 l1,3.5 l1.1,-3.5 H28.33093547821045 l-1.6,4.7 H25.33093547821045 l-0.5,-1.4 l-0.4,-1.6 l-0.4,1.6 l-0.5,1.4 h-1.4 l-1.7000000000000002,-4.7 h1.3 l1.1,3.5 l1,-3.5 H24.93093547821045 z" id="svg_37"/>
		</g>
		<g id="svg_38">
			<path class="st0" d="M30.33093547821045,28.81942448616028 c0.1,0.6000000000000001 0.6000000000000001,1 1.4,1 c0.4,0 1,-0.2 1.3,-0.4 l0.7000000000000001,0.7000000000000001 c-0.5,0.5 -1.3,0.8 -2,0.8 c-1.6,0 -2.6,-1 -2.6,-2.5 c0,-1.4 1,-2.5 2.5,-2.5 c1.6,0 2.6,1 2.4,2.9 H30.33093547821045 zM32.83093547821045,27.919424486160278 c-0.1,-0.6000000000000001 -0.6000000000000001,-0.9 -1.2,-0.9 c-0.6000000000000001,0 -1.1,0.30000000000000004 -1.3,0.9 H32.83093547821045 z" id="svg_39"/>
		</g>
		<g id="svg_40">
			<path class="st0" d="M38.630935478210446,26.119424486160277 h1.1 v4.7 h-1.1 l-0.1,-0.7000000000000001 c-0.30000000000000004,0.6000000000000001 -1,0.8 -1.5,0.8 c-1.4,0 -2.4,-0.8 -2.4,-2.5 c0,-1.6 1.1,-2.5 2.5,-2.5 c0.6000000000000001,0 1.2,0.30000000000000004 1.5,0.8 L38.630935478210446,26.119424486160277 zM35.83093547821045,28.419424486160278 c0,0.9 0.6000000000000001,1.4 1.4,1.4 c1.8,0 1.8,-2.9 0,-2.9 C36.43093547821045,27.01942448616028 35.83093547821045,27.51942448616028 35.83093547821045,28.419424486160278 z" id="svg_41"/>
		</g>
		<g id="svg_42">
			<path class="st0" d="M41.83093547821045,24.21942448616028 v6.5 h-1.2 v-6.5 H41.83093547821045 z" id="svg_43"/>
		</g>
		<g id="svg_44">
			<path class="st0" d="M44.53093547821045,24.81942448616028 v1.3 h1.3 v1 h-1.3 v2 c0,0.4 0.2,0.7000000000000001 0.6000000000000001,0.7000000000000001 c0.2,0 0.4,-0.1 0.6000000000000001,-0.1 l0.30000000000000004,1 c-0.30000000000000004,0.1 -0.6000000000000001,0.2 -1,0.2 c-1,0 -1.7000000000000002,-0.5 -1.7000000000000002,-1.7000000000000002 v-2 h-0.9 v-1 H43.33093547821045 v-1.2 L44.53093547821045,24.81942448616028 z" id="svg_45"/>
		</g>
		<g id="svg_46">
			<path class="st0" d="M47.83093547821045,24.21942448616028 V26.71942448616028 c0.4,-0.5 0.9,-0.7000000000000001 1.5,-0.7000000000000001 c1.3,0 1.9,0.9 1.9,2.3 v2.5 h-1.2 v-2.5 c0,-0.9 -0.4,-1.2 -1.1,-1.2 c-0.7000000000000001,0 -1.2,0.6000000000000001 -1.2,1.3 v2.4 h-1.2 v-6.6 H47.83093547821045 z" id="svg_47"/>
		</g>
		<g id="svg_48">
			<path class="st2" d="M20.630935478210446,39.71942448616028 v-6.7 h1.1 l0.1,0.6000000000000001 c0.4,-0.5 1,-0.8 1.5,-0.8 c1.5,0 2.4,1.1 2.4,2.5 c0,1.4 -0.9,2.5 -2.4,2.5 c-0.5,0 -1.2,-0.2 -1.6,-0.7000000000000001 V39.71942448616028 H20.630935478210446 zM24.530935478210452,35.41942448616028 c0,-0.7000000000000001 -0.5,-1.3 -1.3,-1.3 c-0.8,0 -1.3,0.6000000000000001 -1.3,1.3 c0,0.7000000000000001 0.5,1.3 1.3,1.3 C24.030935478210452,36.71942448616028 24.530935478210452,36.11942448616028 24.530935478210452,35.41942448616028 z" id="svg_49"/>
		</g>
		<g id="svg_50">
			<path class="st2" d="M27.730935478210448,31.81942448616028 V37.71942448616028 h-1.2 v-5.9 H27.730935478210448 z" id="svg_51"/>
		</g>
		<g id="svg_52">
			<path class="st2" d="M29.93093547821045,33.019424486160275 v2.5 c0,0.7000000000000001 0.4,1.3 1.1,1.3 c0.7000000000000001,0 1.2,-0.6000000000000001 1.2,-1.3 v-2.4 h1.2 V37.71942448616028 h-1 L32.33093547821045,37.11942448616028 c-0.5,0.5 -0.9,0.7000000000000001 -1.6,0.7000000000000001 c-1.1,0 -1.9,-0.8 -1.9,-2.3 v-2.5 H29.93093547821045 z" id="svg_53"/>
		</g>
		<g id="svg_54">
			<path class="st2" d="M37.53093547821045,34.31942448616028 c-0.30000000000000004,-0.30000000000000004 -0.7000000000000001,-0.4 -1.2,-0.4 c-0.6000000000000001,0 -0.9,0.2 -0.9,0.5 c0,0.30000000000000004 0.30000000000000004,0.5 0.9,0.5 c0.9,0.1 2,0.30000000000000004 2,1.5 c0,0.8 -0.7000000000000001,1.5 -2,1.5 c-0.7000000000000001,0 -1.5,-0.1 -2.2,-0.8 l0.6000000000000001,-0.8 c0.30000000000000004,0.4 1.1,0.6000000000000001 1.6,0.7000000000000001 c0.4,0 0.8,-0.2 0.8,-0.6000000000000001 c0,-0.30000000000000004 -0.30000000000000004,-0.5 -0.9,-0.5 c-0.9,-0.1 -1.9,-0.4 -1.9,-1.5 c0,-1.1 1.1,-1.5 2,-1.5 c0.7000000000000001,0 1.3,0.1 1.8,0.6000000000000001 L37.53093547821045,34.31942448616028 z" id="svg_55"/>
		</g>
	</g>
</g></g></svg>