<svg width="16" height="17" viewBox="0 0 16 17" fill="none" xmlns="http://www.w3.org/2000/svg">
<path d="M8.17578 15.9141L8.87891 15.2461C9.05469 15.0703 9.05469 14.7891 8.87891 14.6484L3.42969 9.16406H15.4531C15.6641 9.16406 15.875 8.98828 15.875 8.74219V7.75781C15.875 7.54688 15.6641 7.33594 15.4531 7.33594H3.42969L8.87891 1.88672C9.05469 1.74609 9.05469 1.46484 8.87891 1.28906L8.17578 0.621094C8.03516 0.445312 7.75391 0.445312 7.57812 0.621094L0.230469 7.96875C0.0546875 8.14453 0.0546875 8.39062 0.230469 8.56641L7.57812 15.9141C7.75391 16.0898 8.03516 16.0898 8.17578 15.9141Z" fill="#222222" fill-opacity="0.5"/>
</svg>
