<svg width="16" height="19" viewBox="0 0 16 19" fill="none" xmlns="http://www.w3.org/2000/svg">
<path d="M14.0625 2.5C14.5312 2.5 14.9297 2.66406 15.2578 2.99219C15.5859 3.32031 15.75 3.71875 15.75 4.1875V16.5625C15.75 17.0312 15.5859 17.4297 15.2578 17.7578C14.9297 18.0859 14.5312 18.25 14.0625 18.25H1.6875C1.21875 18.25 0.820312 18.0859 0.492188 17.7578C0.164063 17.4297 0 17.0312 0 16.5625V4.1875C0 3.71875 0.164063 3.32031 0.492188 2.99219C0.820312 2.66406 1.21875 2.5 1.6875 2.5H3.375V0.53125C3.375 0.34375 3.46875 0.25 3.65625 0.25H4.21875C4.40625 0.25 4.5 0.34375 4.5 0.53125V2.5H11.25V0.53125C11.25 0.34375 11.3438 0.25 11.5312 0.25H12.0938C12.2812 0.25 12.375 0.34375 12.375 0.53125V2.5H14.0625ZM14.625 16.5625V7H1.125V16.5625C1.125 16.7266 1.17188 16.8555 1.26562 16.9492C1.38281 17.0664 1.52344 17.125 1.6875 17.125H14.0625C14.2266 17.125 14.3555 17.0664 14.4492 16.9492C14.5664 16.8555 14.625 16.7266 14.625 16.5625ZM14.625 5.875V4.1875C14.625 4.02344 14.5664 3.89453 14.4492 3.80078C14.3555 3.68359 14.2266 3.625 14.0625 3.625H1.6875C1.52344 3.625 1.38281 3.68359 1.26562 3.80078C1.17188 3.89453 1.125 4.02344 1.125 4.1875V5.875H14.625ZM3.9375 13.75C3.77344 13.75 3.63281 13.7031 3.51562 13.6094C3.42188 13.4922 3.375 13.3516 3.375 13.1875V9.8125C3.375 9.64844 3.42188 9.51953 3.51562 9.42578C3.63281 9.30859 3.77344 9.25 3.9375 9.25H7.3125C7.47656 9.25 7.60547 9.30859 7.69922 9.42578C7.81641 9.51953 7.875 9.64844 7.875 9.8125V13.1875C7.875 13.3516 7.81641 13.4922 7.69922 13.6094C7.60547 13.7031 7.47656 13.75 7.3125 13.75H3.9375ZM4.5 10.375V12.625H6.75V10.375H4.5Z" fill="#8D939A"/>
</svg>
