<svg width="22" height="22" viewBox="0 0 22 22" fill="none" xmlns="http://www.w3.org/2000/svg">
<path d="M11 0.09375C5.11328 0.09375 0.34375 4.86328 0.34375 10.75C0.34375 16.6367 5.11328 21.4062 11 21.4062C16.8867 21.4062 21.6562 16.6367 21.6562 10.75C21.6562 4.86328 16.8867 0.09375 11 0.09375ZM11 20.0312C5.88672 20.0312 1.71875 15.9062 1.71875 10.75C1.71875 5.67969 5.84375 1.46875 11 1.46875C16.0703 1.46875 20.2812 5.63672 20.2812 10.75C20.2812 15.8633 16.1133 20.0312 11 20.0312ZM15.0391 7.78516C15.2539 7.57031 15.2539 7.26953 15.0391 7.05469L14.6953 6.71094C14.4805 6.49609 14.1797 6.49609 13.9648 6.71094L11 9.67578L7.99219 6.71094C7.82031 6.49609 7.47656 6.49609 7.26172 6.71094L6.91797 7.05469C6.70312 7.26953 6.70312 7.57031 6.91797 7.78516L9.88281 10.75L6.91797 13.7578C6.70312 13.9297 6.70312 14.2734 6.91797 14.4883L7.26172 14.832C7.47656 15.0469 7.82031 15.0469 7.99219 14.832L11 11.8672L13.9648 14.832C14.1797 15.0469 14.4805 15.0469 14.6953 14.832L15.0391 14.4883C15.2539 14.2734 15.2539 13.9297 15.0391 13.7578L12.0742 10.75L15.0391 7.78516Z" fill="#777777"/>
</svg>
