<svg width="18" height="18" viewBox="0 0 18 18" fill="none" xmlns="http://www.w3.org/2000/svg">
<path d="M9.55299 13.2396L13.74 9.096L15.5501 10.925L11.3662 15.0718L9.55299 13.2396Z" fill="#1A81FF"/>
<path d="M14.0854 8.75767L15.2241 7.63078L17.0341 9.45979L15.8954 10.5867L14.0854 8.75767Z" fill="#1A81FF"/>
<path d="M9.06597 13.7249L8.55649 16.0392L10.876 15.5539L11.0244 15.407L9.21435 13.578L9.06597 13.7249Z" fill="#1A81FF"/>
<path d="M15.7621 3.3072L15.7493 5.76443C15.7481 6.00598 15.6157 6.23193 15.4063 6.35311C15.1969 6.47429 14.9345 6.47292 14.7264 6.34957C14.5183 6.22621 14.3882 6.00187 14.3895 5.75734L14.4023 3.30012C14.4045 2.87964 13.9029 2.42672 13.1484 2.42279L3.6893 2.37348C2.93781 2.36956 2.42851 2.81721 2.42632 3.23768L2.37161 13.7316C2.36942 14.1521 2.87104 14.605 3.62551 14.6089L5.75769 14.62C5.99624 14.6243 6.21921 14.7566 6.3374 14.966C6.4556 15.1754 6.45426 15.4318 6.33389 15.64C6.21652 15.8451 5.99816 15.9722 5.76253 15.9799L3.61842 15.9687C2.17508 15.9642 1.00537 14.9561 1.01179 13.7245L1.0665 3.23059C1.0729 2.00198 2.25306 1.00613 3.69638 1.01365L13.1555 1.06296C14.5988 1.07049 15.7686 2.07859 15.7621 3.3072Z" fill="#1A81FF"/>
<path d="M12.0108 5.55709L4.05762 5.51562L4.05053 6.87545L12.0037 6.91691L12.0108 5.55709Z" fill="#1A81FF"/>
<path d="M9.09373 9.63931L4.03613 9.61295L4.02904 10.9728L9.08664 10.9991L9.09373 9.63931Z" fill="#1A81FF"/>
</svg>
