<svg width="22" height="21" viewBox="0 0 22 21" fill="none" xmlns="http://www.w3.org/2000/svg">
<path d="M20.2578 2.72656L18.7734 1.24219C18.3047 0.773438 17.6406 0.5 17.0156 0.5C16.3906 0.5 15.7266 0.773438 15.2578 1.24219L12.3281 4.17188L11 5.5L1.46875 15.0312L1 19.4844C0.921875 20.0312 1.35156 20.5 1.89844 20.5C1.9375 20.5 1.97656 20.5 2.01562 20.5L6.46875 20.0312L16 10.5L17.3281 9.17188L20.2578 6.24219C21.2344 5.26562 21.2344 3.70312 20.2578 2.72656ZM5.60938 18.2344L2.99219 18.5078L3.26562 15.8906L12.2891 6.82812L13.5 5.61719L15.8828 8L14.6719 9.21094L5.60938 18.2344ZM18.9297 4.91406L17.2109 6.67188L14.8281 4.28906L16.5859 2.57031C16.7422 2.41406 16.9375 2.375 17.0156 2.375C17.0938 2.375 17.2891 2.41406 17.4453 2.57031L18.9297 4.05469C19.1641 4.28906 19.1641 4.67969 18.9297 4.91406Z" fill="#1981FF"/>
</svg>
