<svg width="18" height="18" viewBox="0 0 18 18" fill="none" xmlns="http://www.w3.org/2000/svg">
<path d="M9 1.65625C13.1484 1.65625 16.5938 5.06641 16.5938 9.25C16.5938 13.4688 13.1836 16.8438 9 16.8438C4.78125 16.8438 1.40625 13.4688 1.40625 9.25C1.40625 5.06641 4.78125 1.65625 9 1.65625ZM9 0.53125C4.18359 0.53125 0.28125 4.46875 0.28125 9.25C0.28125 14.0664 4.18359 17.9688 9 17.9688C13.7812 17.9688 17.7188 14.0664 17.7188 9.25C17.7188 4.46875 13.7812 0.53125 9 0.53125ZM8.57812 4.75C8.33203 4.75 8.15625 4.96094 8.15625 5.20703L8.40234 11.1133C8.40234 11.3242 8.61328 11.5 8.82422 11.5H9.14062C9.35156 11.5 9.5625 11.3242 9.5625 11.1133L9.80859 5.20703C9.80859 4.96094 9.63281 4.75 9.38672 4.75H8.57812ZM9 12.2031C8.4375 12.2031 8.01562 12.6602 8.01562 13.1875C8.01562 13.75 8.4375 14.1719 9 14.1719C9.52734 14.1719 9.98438 13.75 9.98438 13.1875C9.98438 12.6602 9.52734 12.2031 9 12.2031Z" fill="#FF0000"/>
</svg>
