<svg width="18" height="18" viewBox="0 0 18 18" fill="none" xmlns="http://www.w3.org/2000/svg">
<path d="M9.70936 4.24998V2.62499C9.70936 2.40164 9.59022 2.19531 9.39686 2.0837C9.2035 1.9721 8.96522 1.9721 8.77187 2.0837C8.57851 2.19531 8.45937 2.40164 8.45937 2.62499V4.24998C7.86855 4.42911 7.38348 4.85433 7.12859 5.41668C6.87385 5.97904 6.87385 6.624 7.12859 7.18635C7.38347 7.74885 7.86855 8.17392 8.45937 8.35306V16.3748C8.45937 16.5982 8.57851 16.8045 8.77187 16.9161C8.96523 17.0277 9.20351 17.0277 9.39686 16.9161C9.59022 16.8045 9.70936 16.5981 9.70936 16.3748V8.35306C10.3002 8.17393 10.7852 7.74885 11.0401 7.18635C11.2949 6.624 11.2949 5.97904 11.0401 5.41668C10.7853 4.85433 10.3002 4.42912 9.70936 4.24998ZM9.08437 7.19682C8.84636 7.19682 8.61798 7.10223 8.44987 6.93384C8.28162 6.76532 8.18717 6.53695 8.18745 6.29895C8.18773 6.06095 8.2826 5.83271 8.45126 5.66474C8.61993 5.49664 8.84844 5.40261 9.08644 5.40317C9.32444 5.40373 9.55254 5.49887 9.72036 5.66767C9.88819 5.83648 9.98208 6.06499 9.98124 6.30313C9.98041 6.54043 9.88554 6.7677 9.71743 6.93524C9.54933 7.10279 9.32165 7.19681 9.08433 7.19681L9.08437 7.19682ZM17.1561 12.8657C17.1562 12.4073 17.0099 11.9607 16.7384 11.5914C16.4668 11.222 16.0844 10.9492 15.6468 10.8125V2.62509C15.6468 2.40174 15.5277 2.19542 15.3343 2.08381C15.1409 1.97221 14.9027 1.97221 14.7093 2.08381C14.5159 2.19542 14.3968 2.40175 14.3968 2.62509V10.8125C13.806 10.9917 13.3209 11.4169 13.066 11.9793C12.8113 12.5416 12.8113 13.1866 13.066 13.7489C13.3209 14.3114 13.806 14.7365 14.3968 14.9156V16.375C14.3968 16.5984 14.5159 16.8047 14.7093 16.9163C14.9027 17.0279 15.1409 17.0279 15.3343 16.9163C15.5276 16.8047 15.6468 16.5984 15.6468 16.375V14.9156C16.0841 14.7796 16.4665 14.5073 16.7382 14.1386C17.0097 13.7697 17.1561 13.3237 17.1561 12.8657L17.1561 12.8657ZM15.0218 13.7594C14.7838 13.7594 14.5554 13.6648 14.3873 13.4964C14.219 13.3279 14.1246 13.0995 14.1248 12.8615C14.1251 12.6235 14.22 12.3953 14.3887 12.2273C14.5573 12.0592 14.7858 11.9652 15.0238 11.9657C15.2618 11.9663 15.4899 12.0614 15.6578 12.2302C15.8256 12.399 15.9195 12.6276 15.9186 12.8657C15.9178 13.103 15.8229 13.3303 15.6548 13.4978C15.4867 13.6654 15.259 13.7594 15.0217 13.7594L15.0218 13.7594ZM3.77183 7.37514V2.62517C3.77183 2.40181 3.65269 2.19549 3.45933 2.08388C3.26597 1.97228 3.02769 1.97228 2.83433 2.08388C2.64098 2.19549 2.52183 2.40182 2.52183 2.62517V7.37514C1.93102 7.55427 1.44595 7.97949 1.19106 8.54184C0.936315 9.1042 0.936315 9.74916 1.19106 10.3115C1.44594 10.874 1.93102 11.2991 2.52183 11.4782V16.375C2.52183 16.5983 2.64097 16.8047 2.83433 16.9163C3.02769 17.0279 3.26597 17.0279 3.45933 16.9163C3.65268 16.8047 3.77183 16.5983 3.77183 16.375V11.4782C4.36264 11.2991 4.84771 10.874 5.1026 10.3115C5.35735 9.74916 5.35735 9.1042 5.1026 8.54184C4.84772 7.97949 4.36264 7.55428 3.77183 7.37514ZM3.14683 10.322C2.90018 10.3366 2.65855 10.2487 2.47873 10.0794C2.2989 9.90987 2.19706 9.67369 2.19706 9.42677C2.19706 9.1797 2.2989 8.94352 2.47873 8.77417C2.65855 8.60466 2.90019 8.51691 3.14683 8.53142C3.39348 8.51691 3.63511 8.60466 3.81493 8.77417C3.99476 8.94353 4.0966 9.1797 4.0966 9.42677C4.0966 9.6737 3.99476 9.90987 3.81493 10.0794C3.63511 10.2487 3.39347 10.3366 3.14683 10.322Z" fill="#1A81FF"/>
</svg>
