<svg width="22" height="22" viewBox="0 0 22 22" fill="none" xmlns="http://www.w3.org/2000/svg">
<path d="M11 14.3594C10.3125 14.3594 9.79688 14.918 9.79688 15.5625C9.79688 16.25 10.3125 16.7656 11 16.7656C11.6445 16.7656 12.2031 16.25 12.2031 15.5625C12.2031 14.918 11.6445 14.3594 11 14.3594ZM11.3008 13.3281C11.6016 13.3281 11.8164 13.1133 11.8164 12.8125C11.8164 10.9648 15.168 11.0938 15.168 8.21484C15.168 6.02344 13.1914 4.73438 10.957 4.73438C9.02344 4.73438 7.94922 5.50781 7.04688 6.66797C6.875 6.92578 6.91797 7.22656 7.17578 7.39844L7.73438 7.82812C7.94922 7.95703 8.25 7.91406 8.42188 7.69922C9.06641 6.88281 9.71094 6.45312 10.957 6.45312C12.6758 6.45312 13.4492 7.35547 13.4492 8.21484C13.4492 10.0625 10.0977 9.80469 10.0977 12.8125C10.0977 13.1133 10.3555 13.3281 10.6133 13.3281H11.3008ZM11 1.46875C16.0703 1.46875 20.2812 5.63672 20.2812 10.75C20.2812 15.9062 16.1133 20.0312 11 20.0312C5.84375 20.0312 1.71875 15.9062 1.71875 10.75C1.71875 5.63672 5.84375 1.46875 11 1.46875ZM11 0.09375C5.11328 0.09375 0.34375 4.90625 0.34375 10.75C0.34375 16.6367 5.11328 21.4062 11 21.4062C16.8438 21.4062 21.6562 16.6367 21.6562 10.75C21.6562 4.90625 16.8438 0.09375 11 0.09375Z" fill="#8D939A"/>
</svg>
