<svg width="15" height="15" viewBox="0 0 15 15" fill="none" xmlns="http://www.w3.org/2000/svg">
<path d="M14.0596 14.0627L10.5322 10.5354C10.4775 10.4807 10.3955 10.4534 10.3135 10.4534H10.0127C10.9697 9.41431 11.5439 8.07446 11.5439 6.57056C11.5439 3.45337 8.97363 0.883057 5.85645 0.883057C2.71191 0.883057 0.168945 3.45337 0.168945 6.57056C0.168945 9.71509 2.71191 12.2581 5.85645 12.2581C7.33301 12.2581 8.7002 11.6838 9.71191 10.7542V11.0276C9.71191 11.137 9.73926 11.219 9.79395 11.2737L13.3213 14.801C13.458 14.9377 13.6494 14.9377 13.7861 14.801L14.0596 14.5276C14.1963 14.3909 14.1963 14.1995 14.0596 14.0627ZM5.85645 11.3831C3.17676 11.3831 1.04395 9.25024 1.04395 6.57056C1.04395 3.91821 3.17676 1.75806 5.85645 1.75806C8.50879 1.75806 10.6689 3.91821 10.6689 6.57056C10.6689 9.25024 8.50879 11.3831 5.85645 11.3831Z" fill="#222222" fill-opacity="0.4"/>
</svg>
