<svg width="60" height="38" viewBox="0 0 60 38" fill="none" xmlns="http://www.w3.org/2000/svg">
<path d="M16.1064 30.0823H38.0307L42.7434 26.4091L47.6679 30.0823H55.7866V1.05371H16.1064V30.0823Z" fill="#1A81FF"/>
<circle cx="10" cy="32" r="5" fill="#E8EBEE"/>
<circle cx="43" cy="32" r="5" fill="#E8EBEE"/>
<path d="M0.00594711 31.2953C0.292889 31.8206 0.752758 31.9816 1.32611 31.9686C2.19991 31.9497 3.07533 31.9638 3.99182 31.9638C4.08585 33.9286 4.82671 35.5244 6.35438 36.7116C7.43948 37.5551 8.67155 37.9723 10.049 37.9723C12.4899 37.9723 15.7133 36.0783 15.9797 31.9994H37.0785C37.1569 34.1156 38.0609 35.8173 39.8307 37.0007C40.9871 37.7734 42.2857 38.0977 43.6771 37.9377C46.478 37.6162 48.8886 35.3325 49.027 31.9935C49.2264 31.9848 49.4322 31.9681 49.6381 31.9681C50.9864 31.9681 52.3341 31.9681 53.6824 31.9681C55.2711 31.9632 56.0212 31.2159 56.026 29.6444C56.026 29.104 56.026 28.5593 56.026 27.9487C56.9014 27.9487 57.7174 27.9519 58.5339 27.9487C58.7868 27.9487 59.0457 27.9514 59.2905 27.9022C59.7536 27.8087 60.0643 27.4629 59.9887 27.0333C59.9314 26.7091 59.632 26.3848 59.358 26.1627C59.1959 26.0293 58.8717 26.0676 58.6199 26.0671C55.9233 26.0617 53.227 26.0606 50.5308 26.0638C50.4525 26.0638 50.3741 26.0638 50.2963 26.0638C49.5652 26.0936 49.1221 26.461 49.1318 27.0279C49.1415 27.5948 49.5727 27.9406 50.3271 27.9465C51.5732 27.9557 52.8199 27.9465 54.1428 27.9465C54.1428 28.6064 54.159 29.2046 54.1271 29.8006C54.1217 29.9017 53.911 30.0708 53.7931 30.0746C52.172 30.093 50.5508 30.0967 48.9297 30.0697C48.787 30.067 48.5936 29.846 48.5152 29.6823C47.4966 27.5521 45.8452 26.3281 43.475 26.1157C41.1049 25.9033 38.6791 27.2759 37.7221 29.4521C37.4914 29.9751 37.2082 30.1043 36.6759 30.1005C30.6776 30.0827 24.6794 30.0892 18.6811 30.0892H17.9321V28.0384C17.9321 26.4556 17.9494 24.8728 17.9175 23.2906C17.9111 22.9664 17.8095 22.5449 17.5895 22.3465C17.3804 22.1579 16.8946 22.0639 16.652 22.1812C16.3818 22.3109 16.1029 22.7172 16.0846 23.0193C16.0165 24.1287 16.0543 25.2452 16.0538 26.3589C16.0538 27.4332 16.0613 28.508 16.0451 29.5823C16.0451 29.7444 15.9316 29.9065 15.8706 30.0686C15.7241 29.9449 15.5139 29.8525 15.4415 29.6904C14.6034 27.8698 13.2356 26.6993 11.2805 26.2319C8.59536 25.5878 5.69566 27.0014 4.59489 29.5282C4.409 29.9546 4.1988 30.1259 3.73028 30.0913C3.13586 30.047 2.53062 30.0805 1.91512 30.0805V25.9158C2.33068 25.9158 2.71759 25.9331 3.10397 25.9131C4.6392 25.832 5.80589 24.661 5.87344 23.1187C5.90316 22.4557 5.89668 21.7905 5.88425 21.1263C5.8702 20.4022 5.52814 20.0634 4.78835 20.051C3.91022 20.0358 3.0321 20.0472 2.15074 20.0472C2.28421 18.9297 3.53574 17.9559 4.89426 17.9343C6.47651 17.9089 8.05984 17.9256 9.64209 17.9251H16.0565C16.0565 18.2818 16.044 18.606 16.0592 18.9286C16.0862 19.5095 16.4326 19.8872 16.9411 19.9159C17.4496 19.9445 17.8662 19.5419 17.9246 18.9589C17.9419 18.7849 17.9321 18.6076 17.9321 18.432V1.92107H54.1487V18.2947C54.1487 18.4314 54.1487 18.5682 54.1487 18.7049C54.159 19.4922 54.5081 19.9348 55.1047 19.9175C55.6715 19.9008 56.0233 19.4587 56.0233 18.7152C56.0287 15.823 56.0287 12.9312 56.0233 10.0398C56.0233 7.46073 56.0233 4.88166 56.0233 2.30258C56.0233 0.751134 55.2711 0 53.7218 0C41.9202 0 30.1187 0 18.3174 0C16.793 0 16.0559 0.740327 16.0478 2.26313C16.0478 2.80838 16.0478 3.35363 16.0478 3.96913C15.8154 3.98155 15.6112 4.00209 15.4064 4.00263C13.3529 4.00263 11.3032 3.9956 9.25193 4.00641C7.1347 4.01776 5.59298 5.13582 5.15095 7.06229C5.00126 7.71562 5.00721 8.4246 5.06881 9.09684C5.09691 9.40432 5.43195 9.6837 5.70214 10.0874C5.25579 11.8771 4.77592 13.8257 4.27498 15.7684C4.23553 15.9214 4.06964 16.1191 3.92644 16.1559C1.77571 16.7076 0.509586 18.0813 0.0616074 20.238C0.0456886 20.2917 0.025074 20.344 0 20.3941L0.00594711 31.2953ZM6.16633 16.0246C6.64241 14.1111 7.11255 12.2819 7.54431 10.444C7.64428 10.0198 7.82153 9.88796 8.25114 9.89174C10.6531 9.9112 13.0546 9.89985 15.4566 9.90309C15.642 9.90309 15.8273 9.93119 16.0073 9.94578V16.0246H6.16633ZM42.9282 27.9671C45.1054 27.8504 46.9951 29.625 47.1156 31.9C47.2307 34.0615 45.4345 35.9691 43.1681 36.0885C40.9968 36.2031 39.1152 34.4247 38.9942 32.1437C38.8801 29.9573 40.6413 28.0876 42.9303 27.9644L42.9282 27.9671ZM9.94254 36.0901C7.72318 36.0642 5.86317 34.1804 5.89614 31.9919C5.92964 29.7574 7.78749 27.9292 9.99442 27.9563C12.2311 27.9838 14.0759 29.8476 14.0419 32.0437C14.0089 34.2712 12.1387 36.1177 9.94254 36.0901ZM6.90179 7.9777C6.938 7.7475 6.94665 7.55566 7.00015 7.37679C7.28493 6.41815 8.04579 5.89074 9.18924 5.88533C11.3157 5.87561 13.4415 5.88155 15.5658 5.88533C15.7178 5.89306 15.8693 5.90876 16.0197 5.93234V7.97824L6.90179 7.9777ZM1.91837 23.9823V21.9629H3.95778C4.18042 23.751 3.65138 24.2714 1.91837 23.9823Z" fill="#222222"/>
<path d="M33.0354 17.6456C34.167 16.5108 35.2564 15.4198 36.3464 14.3287C37.9621 12.7126 39.5788 11.0971 41.1963 9.48203C41.7367 8.94165 42.2636 8.88761 42.6878 9.30046C43.112 9.71332 43.066 10.2688 42.5424 10.7914C39.6449 13.6947 36.7437 16.5948 33.839 19.4916C33.2575 20.0709 32.7939 20.0784 32.2178 19.5089C30.6352 17.9421 29.0605 16.3676 27.4938 14.7854C26.9972 14.285 26.9534 13.737 27.3387 13.3339C27.7505 12.9016 28.2962 12.9405 28.8291 13.4679C30.0779 14.7049 31.3148 15.9537 32.561 17.1966C32.6982 17.3306 32.8409 17.4608 33.0354 17.6456Z" fill="#E8EBEE"/>
<path d="M28.029 27.9409C30.1942 27.9409 32.3595 27.9409 34.525 27.9409C34.7589 27.9472 34.9929 27.9331 35.2243 27.8988C35.696 27.815 35.9381 27.4778 35.9527 27.0342C35.9673 26.5905 35.7409 26.243 35.2767 26.1295C35.0678 26.0824 34.8542 26.0597 34.6401 26.062C30.2317 26.0588 25.823 26.0588 21.4142 26.062C21.2392 26.0613 21.0644 26.0734 20.8911 26.0982C20.3702 26.1749 20.0962 26.5013 20.0686 27.0082C20.0432 27.487 20.4204 27.862 20.9489 27.922C21.1431 27.9396 21.3381 27.9461 21.5331 27.9415C23.6982 27.9418 25.8635 27.9416 28.029 27.9409Z" fill="#222222"/>
<path d="M51.1213 23.9261C53.0743 23.9261 55.0272 23.9504 56.9786 23.9007C57.2995 23.8926 57.7275 23.6251 57.8923 23.35C58.0237 23.1306 57.9388 22.613 57.7513 22.4152C57.5352 22.186 57.1028 22.0699 56.7613 22.0634C55.0045 22.0299 53.2488 22.0477 51.4893 22.0477C49.4978 22.0477 47.5063 22.0477 45.5148 22.0477C45.3393 22.0413 45.1635 22.0486 44.989 22.0693C44.467 22.1525 44.1109 22.5503 44.1244 23.0166C44.1374 23.5208 44.5205 23.8969 45.0901 23.9174C45.6948 23.9391 46.3006 23.9255 46.9058 23.9261C48.3104 23.9272 49.7156 23.9272 51.1213 23.9261Z" fill="#222222"/>
<path d="M43.069 30.0931C42.8153 30.0883 42.5632 30.1342 42.3275 30.228C42.0918 30.3219 41.8772 30.4618 41.6962 30.6397C41.5153 30.8175 41.3717 31.0297 41.2738 31.2638C41.176 31.4979 41.1258 31.7491 41.1263 32.0028C41.1228 32.2567 41.1695 32.5088 41.2636 32.7447C41.3577 32.9805 41.4974 33.1955 41.6747 33.3773C41.852 33.5591 42.0634 33.7041 42.2968 33.8041C42.5302 33.9041 42.781 33.9571 43.0349 33.9601C44.0833 33.9709 44.9803 33.0901 44.9933 32.0363C45.0062 30.9826 44.1378 30.1012 43.069 30.0931Z" fill="black"/>
<path d="M11.8989 32.0256C11.9004 31.5129 11.6982 31.0206 11.3368 30.6571C10.9753 30.2935 10.4843 30.0884 9.97164 30.0869C9.45898 30.0854 8.96673 30.2876 8.60317 30.6491C8.2396 31.0105 8.03451 31.5016 8.033 32.0142C8.03226 32.268 8.08152 32.5195 8.17797 32.7543C8.27442 32.9891 8.41618 33.2027 8.59514 33.3827C8.77411 33.5627 8.98678 33.7057 9.22101 33.8035C9.45524 33.9014 9.70645 33.9521 9.96029 33.9528C10.2141 33.9536 10.4656 33.9043 10.7004 33.8079C10.9352 33.7114 11.1487 33.5697 11.3288 33.3907C11.5088 33.2117 11.6518 32.9991 11.7496 32.7648C11.8474 32.5306 11.8982 32.2794 11.8989 32.0256Z" fill="black"/>
</svg>
