<svg width="540" height="391" viewBox="0 0 540 391" fill="none" xmlns="http://www.w3.org/2000/svg">
<path d="M210.04 263.833C210.04 263.833 258.164 250.101 270.244 263.153C280.84 274.6 309.544 319.953 311.051 346.786C312.51 372.865 284.924 390 256.536 390H206.103L210.04 263.833Z" fill="#F1784F"/>
<path d="M176.743 277.201C176.743 277.201 244.772 246.285 257.654 266.482C264.484 277.201 283.32 319.953 284.705 346.81C286.066 372.889 260.668 390.024 234.564 390.024H188.191L176.743 277.201Z" fill="#CA522A"/>
<path d="M42.6045 182.12C42.6045 182.12 127.234 179.835 159.511 179.908C176.135 179.957 175.722 192.523 183.694 207.105C199.687 236.296 226.228 286.509 224.113 294.336C221.099 305.516 107.839 313.245 99.8182 310.668C91.8219 308.092 42.6045 182.12 42.6045 182.12Z" fill="#E76337"/>
<path d="M108.859 204.748C108.859 204.748 110.002 188.148 105.992 189.582C101.981 191.016 76.4854 214.202 80.4957 268.913L92.235 278.926L181.871 264.027L108.859 204.748Z" fill="#D94F21"/>
<path d="M222.801 272.072L192.614 286.996C192.614 286.996 166.754 191.891 165.028 184.624C164.275 181.391 161.893 180.224 159.535 179.933C163.716 179.544 166.754 179.52 166.754 179.52C174.993 179.52 182.309 184.769 184.958 192.571C190.718 209.585 201.34 240.938 212.082 272.874C214.902 271.756 218.231 270.468 221.926 269.132L222.801 272.072Z" fill="#F1784F"/>
<path d="M162.379 277.225C162.379 277.225 259.938 268.597 271.969 280.093C277.56 285.44 280.695 309.648 282.445 334.074C284.632 364.528 259.963 390.583 229.606 390.145L123.856 390.194L162.379 277.225Z" fill="#DB653E"/>
<path d="M125.873 159.517C123.078 158.885 120.186 159.614 118.217 160.343C118.557 159.662 119.529 159.152 119.529 159.152C118.241 159.346 115.859 161.412 115.859 161.412C96.61 160.027 101.665 186.203 103.804 191.988C105.967 197.772 108.082 204.529 101.106 212.428C87.3741 227.983 107.183 241.764 107.183 241.764C107.328 241.813 119.068 252.556 119.068 252.556C117.172 247.938 131.463 216.123 140.626 205.088C142.157 200.13 140.942 192.571 140.845 191.988C142.109 197.894 142.109 201.418 141.793 203.484C148.744 191.623 133.286 161.169 125.873 159.517Z" fill="#061830"/>
<path d="M199.638 205.185C199.93 204.748 202.36 197.311 204.937 197.456C207.513 197.602 211.523 198.04 212.52 197.748C213.516 197.456 216.895 194.929 217.454 195.536C218.888 197.043 215.655 201.686 213.37 202.415C211.086 203.119 207.367 202.05 206.492 202.925C205.641 203.776 205.787 206.862 205.787 206.862L199.638 205.185Z" fill="#FDB3B1"/>
<path d="M267.789 369.972C267.498 373.011 271.727 373.74 276.636 373.983C281.546 374.226 280.063 375.222 286.771 376.438C293.48 377.653 296.177 375.806 296.663 374.906C297.101 374.104 293.966 372.84 290.66 371.431C290.247 371.261 289.834 371.066 289.396 370.896C285.653 369.243 283.563 365.889 280.622 362.778C277.852 359.837 275.227 350.383 275.227 350.383L266.112 348.438C266.112 348.438 268.664 356.945 269.564 360.566C270.098 362.705 269.321 365.087 268.64 366.91C268.251 367.882 267.887 368.903 267.789 369.972Z" fill="#FDB3B1"/>
<path d="M276.637 373.983C281.546 374.226 280.064 375.222 286.772 376.438C293.48 377.653 296.178 375.806 296.664 374.906C297.101 374.104 293.966 372.841 290.661 371.431L290.612 371.479C290.612 371.479 285.897 373.084 280.453 371.601C276.005 370.386 271.727 367.736 268.665 366.886C268.3 367.882 267.911 368.879 267.814 369.948C267.522 373.011 271.751 373.74 276.637 373.983Z" fill="#072251"/>
<path d="M176.962 261.791C176.962 261.791 237.578 257.222 249.001 264.441C260.425 271.635 278.726 355.535 278.726 355.535C278.726 355.535 277.608 356.435 275.08 356.702C272.723 356.945 267.57 355.584 267.57 355.584C267.57 355.584 241.224 318.057 239.376 308.603C237.529 299.148 237.967 290.714 233.762 290.471C229.533 290.252 176.962 296.863 168.99 282.839C161.042 268.816 167.604 254.962 167.604 254.962L176.962 261.791Z" fill="#041835"/>
<path d="M205.69 214.178C201.558 224.605 191.618 241.618 189.041 242.275C186.878 242.809 176.281 240.403 167.653 237.462C162.622 235.737 158.247 233.841 156.667 232.261C152.365 227.959 138.244 202.731 138.244 202.731C138.244 202.731 151.515 201.054 157.834 204.772C164.129 208.491 179.319 225.674 181.604 225.115C183.889 224.532 194.777 205.355 199.079 203.63C199.079 203.63 205.666 202.196 207.391 206.789C207.805 207.908 207.075 210.678 205.69 214.178Z" fill="#02CCC0"/>
<path d="M244.602 379.694C244.311 382.732 248.54 383.462 253.449 383.705C258.359 383.948 256.876 384.944 263.584 386.159C270.293 387.375 272.99 385.527 273.476 384.628C273.914 383.826 270.779 382.562 267.473 381.153C267.06 380.982 266.647 380.788 266.209 380.618C262.466 378.965 260.376 375.611 257.435 372.5C254.665 369.559 252.04 360.105 252.04 360.105L242.925 358.16C242.925 358.16 245.477 366.667 246.377 370.288C246.911 372.427 246.134 374.809 245.453 376.632C245.064 377.628 244.7 378.625 244.602 379.694Z" fill="#FDB3B1"/>
<path d="M253.449 383.729C258.359 383.972 256.876 384.968 263.584 386.184C270.293 387.399 272.99 385.552 273.476 384.652C273.914 383.85 270.779 382.587 267.473 381.177L267.425 381.225C267.425 381.225 262.709 382.83 257.265 381.347C252.817 380.132 248.54 377.482 245.477 376.632C245.113 377.628 244.724 378.625 244.627 379.694C244.311 382.732 248.54 383.486 253.449 383.729Z" fill="#072251"/>
<path d="M205.69 214.178C201.559 224.605 191.618 241.618 189.041 242.275C186.878 242.809 176.281 240.403 167.653 237.462C164.08 234.424 161.893 231.799 161.553 231.265C161.844 231.362 181.92 238.994 185.882 237.268C189.503 235.712 199.711 218.286 205.69 214.178Z" fill="#01B3AA"/>
<path d="M140.043 205.671C140.116 205.671 135.401 210.289 130.856 210.411C126.578 210.532 122.422 206.206 122.47 206.182C124.05 205.331 123.831 202.901 120.769 193.009L121.571 192.936L135.06 191.575C135.06 191.575 135.984 195.658 137.126 199.449C138.098 202.609 139.216 205.574 140.043 205.671Z" fill="#FDB3B1"/>
<path d="M135.085 191.575C135.085 191.575 136.008 195.658 137.151 199.449C129.956 201.418 124.22 196.071 121.571 192.936L135.085 191.575Z" fill="#FC9492"/>
<path d="M165.076 265.559C165.076 265.559 218.936 268.111 230.043 275.742C241.175 283.374 256.195 367.931 256.195 367.931C256.195 367.931 255.029 368.781 252.501 368.976C250.143 369.146 245.039 367.566 245.039 367.566C245.039 367.566 220.224 329.019 218.742 319.491C217.259 309.964 218.037 301.554 213.832 301.165C209.627 300.776 156.813 305.346 149.424 291.03C141.987 276.715 165.076 265.559 165.076 265.559Z" fill="#072251"/>
<path d="M119.846 191.964C119.846 191.964 114.304 187.2 111.874 182.436C110.124 179.033 107.888 165.131 121.887 162.944C121.887 162.944 125.897 162.142 130.321 163.503C133.821 164.572 139.338 167.537 138.196 180.613L138.171 184.915L119.846 191.964Z" fill="#061830"/>
<path d="M165.368 270.128C164.906 270.128 164.226 270.104 163.448 270.031C160.313 269.788 155.282 269.107 153.532 268.597C138.706 264.173 124.487 258.705 118.411 239.528C117.682 237.219 117.074 234.692 116.588 231.945L118.897 223.147L123.394 204.554C123.394 204.554 128.935 207.519 134.088 206.376C136.737 205.793 138.22 202.706 138.22 202.706C138.22 202.706 166.097 213.619 175.552 236.247C185.007 258.875 188.239 255.424 191.107 260.309C194.024 265.17 181.312 270.031 165.368 270.128Z" fill="#02CCC0"/>
<path d="M138.536 194.418C138.536 194.418 121.765 199.838 118.557 189.339C115.349 178.839 110.998 172.471 121.571 168.582C132.143 164.669 135.449 168.048 137.369 171.28C139.313 174.537 142.813 192.741 138.536 194.418Z" fill="#FDB3B1"/>
<path d="M129.179 165.982C129.179 165.982 128.328 179.714 121.79 183.676C115.276 187.662 111.606 186.689 111.606 186.689C111.606 186.689 115.714 180.71 114.547 172.836C114.572 172.86 123.905 161.194 129.179 165.982Z" fill="#061830"/>
<path d="M128.328 167.343C128.328 167.343 132.606 169.044 134.258 171.45C135.911 173.856 137.977 179.252 139.508 178.572C139.508 178.572 140.432 169.141 135.085 165.593C129.446 161.85 128.328 167.343 128.328 167.343Z" fill="#061830"/>
<path d="M163.473 270.055C160.337 269.812 155.306 269.131 153.556 268.621C138.73 264.198 124.512 258.729 118.436 239.552C118.411 239.407 118.387 239.261 118.363 239.139L120.429 237.511C124.633 234.205 130.296 233.452 135.23 235.518C146.921 240.452 162.986 249.42 163.473 270.055Z" fill="#01B3AA"/>
<path d="M123.418 204.553C123.418 204.553 106.089 207.154 103.245 218.018C100.377 228.883 97.8252 264.392 100.426 267.187C103.002 269.982 110.707 266.75 112.432 265.34C114.158 263.93 123.029 227.837 123.029 227.837C123.029 227.837 127.331 211.529 123.418 204.553Z" fill="#02CCC0"/>
<path d="M149.789 254.451C149.789 254.451 159.754 252.531 160.872 253.017C161.99 253.503 168.261 259.118 167.629 260.236C166.997 261.354 164.421 262.156 161.528 261.208C158.636 260.236 152.365 259.75 151.247 258.316C150.105 256.858 149.789 254.451 149.789 254.451Z" fill="#FDB3B1"/>
<path d="M152.463 253.066C152.463 253.066 113.575 252.434 104.266 258.535C104.266 258.535 98.7974 264.149 100.402 267.211C102.006 270.274 106.988 269.788 109.248 269.618C111.509 269.447 150.858 260.455 150.858 260.455C150.858 260.455 155.355 257.076 152.463 253.066Z" fill="#FA8D69"/>
<path d="M119.529 264.312C119.529 264.312 163.788 250.58 174.896 263.631C184.642 275.079 211.037 320.432 212.422 347.264C213.783 373.343 188.385 390.478 162.281 390.478H115.908L119.529 264.312Z" fill="#F1784F"/>
<path d="M185.906 346.81C184.521 319.977 165.684 277.201 158.855 266.482C148.865 250.854 105.797 265.875 86.888 273.433C76.1453 241.473 65.524 210.119 59.7638 193.106C57.1146 185.304 49.7988 180.054 41.5594 180.054C41.5594 180.054 10.8138 175.509 6.05004 216.463C-9.18911 347.588 3.06054 389.854 57.6979 390.194C64.5519 390.243 77.9438 390.121 89.3914 389.975V390H135.765C161.893 390.024 187.267 372.889 185.906 346.81Z" fill="#F1784F"/>
<path d="M185.906 346.713C184.52 319.807 165.684 276.909 158.854 266.166C150.348 252.823 117.876 261.743 96.7555 269.375C93.0612 270.711 89.7071 271.999 86.9121 273.142C76.145 241.084 65.5238 209.633 59.7635 192.571C57.1386 184.769 49.7985 179.495 41.5835 179.495C41.5835 179.495 38.5454 179.519 34.3649 179.908C27.6325 180.516 17.9349 182.047 13.2926 185.863C10.133 188.439 7.96986 199.79 6.09838 216.025C1.62629 254.354 -0.488236 285.124 0.119386 309.478C0.435349 321.97 1.45615 332.786 3.23041 342.046C4.46996 348.536 6.09838 354.296 8.11569 359.351C16.8411 381.274 32.9066 390.097 57.7219 390.243C60.6142 390.267 64.6488 390.243 69.2181 390.218C75.5131 390.17 82.7802 390.097 89.4155 390.024V390.048H135.789C161.893 390.073 187.267 372.865 185.906 346.713Z" fill="#DB653E"/>
<path d="M86.5718 271.822C79.5963 274.569 71.8674 277.607 65.5967 280.061C59.4719 257.555 41.4377 191.106 40.028 185.102C39.2745 181.87 36.8927 180.703 34.5351 180.411C38.7155 180.023 41.7536 179.998 41.7536 179.998C49.993 179.998 57.3087 185.248 59.958 193.05C65.621 209.747 75.9749 240.396 86.5718 271.822Z" fill="#F1784F"/>
<path d="M455.467 280.117V315.602C455.467 321.849 453.717 326.88 451.529 326.88H382.042C379.854 326.88 378.104 321.825 378.104 315.602V280.117C378.104 273.871 384.253 268.111 402.263 268.305L451.553 268.84C453.692 268.84 455.467 273.871 455.467 280.117Z" fill="#F1784F"/>
<path d="M464.653 280.117V315.602C464.653 321.849 462.904 326.88 460.716 326.88H391.229C389.041 326.88 387.291 321.825 387.291 315.602V280.117C387.291 273.871 393.829 267.916 403.843 268.111L460.716 268.84C462.904 268.84 464.653 273.871 464.653 280.117Z" fill="#E76337"/>
<path d="M447.519 237.535C448.467 235.445 447.057 148.093 468.348 149.138C489.639 150.183 529.402 151.229 529.402 151.229C529.402 151.229 547.387 152.808 536.499 195.682C525.61 238.58 527.968 306.585 527.968 306.585H449.39L447.519 237.535Z" fill="#F1774F"/>
<path d="M521.357 195.706C520.044 200.835 518.951 206.303 518.003 211.966C514.163 234.935 512.972 261.087 512.68 280.093C512.461 295.794 512.85 306.585 512.85 306.585H434.297L432.401 237.535C433.325 235.445 431.915 148.093 453.206 149.138C464.095 149.673 479.82 150.183 492.555 150.621C494.16 150.645 495.715 150.718 497.222 150.742C507.09 151.034 514.26 151.229 514.26 151.229C514.26 151.229 532.245 152.784 521.357 195.706Z" fill="#E76337"/>
<path d="M472.018 370.945V324.863C472.018 322.918 470.389 321.265 468.421 321.265H468.396C467.764 321.265 467.157 321.46 466.646 321.776C465.553 322.384 464.824 323.526 464.824 324.863V370.993C464.678 371.018 464.556 371.042 464.41 371.066C454.105 372.67 445.696 380.229 442.901 390.121H494.354C491.437 379.986 482.712 372.306 472.018 370.945Z" fill="#D65F37"/>
<path opacity="0.4" d="M517.93 210.605C516.01 181.148 500.601 155.944 497.247 150.743L463.487 147.413C463.487 147.413 437.457 164.621 443.873 230.876C447.179 265.048 461.275 242.664 474.133 212.963L471.484 277.298C471.484 277.298 502.91 279.437 512.68 280.093C512.972 261.111 514.163 234.935 518.003 211.966C518.003 211.529 517.954 211.043 517.93 210.605Z" fill="#C43100"/>
<path d="M466.623 321.776C465.529 322.383 464.8 323.526 464.8 324.863V381.323C464.8 382.66 465.529 383.826 466.623 384.385C467.668 383.778 468.421 382.635 468.421 381.323V324.863C468.421 323.55 467.692 322.383 466.623 321.776Z" fill="#D14F24"/>
<path d="M464.386 371.066C454.081 372.67 445.671 380.229 442.876 390.121H485.92C483.101 380.229 474.74 372.67 464.386 371.066Z" fill="#D14F24"/>
<path d="M529.11 310.547L527.336 320.755C527.336 322.943 527.36 326.88 525.173 326.88H402.846C400.659 326.88 398.909 325.13 398.909 322.943V310.547C398.909 308.36 400.659 306.61 402.846 306.61H525.173C527.36 306.61 529.11 308.36 529.11 310.547Z" fill="#F1784F"/>
<path d="M463.438 186.544L463.487 187.2L463.511 187.71L463.56 188.707C463.584 189.339 463.608 189.971 463.633 190.603C463.657 191.842 463.657 193.082 463.633 194.297C463.584 196.727 463.487 199.134 463.292 201.54C463.098 203.946 462.831 206.328 462.515 208.685C462.174 211.067 461.785 213.425 461.324 215.782C460.862 218.14 460.303 220.473 459.72 222.782C459.404 223.949 459.112 225.091 458.747 226.258C458.577 226.841 458.407 227.4 458.237 227.983L457.702 229.709C457.532 230.292 457.313 230.851 457.119 231.41C456.924 231.969 456.73 232.553 456.536 233.112C456.122 234.23 455.709 235.372 455.247 236.49C455.029 237.049 454.81 237.608 454.567 238.167L453.862 239.844L453.692 240.257L453.595 240.476L453.4 240.889C453.23 241.278 453.06 241.618 452.866 241.959C452.695 242.275 452.501 242.615 452.307 242.882C452.112 243.174 451.942 243.441 451.748 243.709L451.48 244.073C451.383 244.195 451.286 244.316 451.213 244.438L450.945 244.778L450.678 245.094C450.508 245.313 450.338 245.483 450.143 245.677C449.439 246.431 448.782 247.038 448.15 247.597C447.519 248.156 446.887 248.642 446.279 249.104C445.064 250.004 443.897 250.757 442.755 251.462C440.47 252.847 438.283 253.99 436.095 255.01C431.72 257.076 427.443 258.802 423.141 260.382C418.839 261.962 414.561 263.396 410.259 264.732C408.096 265.389 405.957 266.02 403.794 266.652C402.7 266.968 401.631 267.26 400.537 267.576L398.909 268.013L397.232 268.451L392.201 251.632L393.659 251.097L395.166 250.538L398.18 249.42C400.173 248.667 402.166 247.889 404.159 247.111C408.12 245.556 412.058 243.927 415.898 242.25C417.818 241.4 419.714 240.525 421.561 239.65C423.408 238.75 425.231 237.851 426.957 236.903C428.682 235.955 430.335 234.983 431.745 234.011C432.449 233.525 433.106 233.063 433.616 232.626C434.127 232.188 434.54 231.775 434.613 231.653C434.613 231.653 434.637 231.629 434.613 231.629C434.613 231.629 434.588 231.629 434.588 231.653L434.564 231.678C434.564 231.678 434.54 231.702 434.54 231.726C434.515 231.775 434.491 231.799 434.443 231.872C434.418 231.921 434.345 232.018 434.297 232.091C434.224 232.188 434.199 232.285 434.127 232.431L434.078 232.528C434.054 232.553 434.078 232.528 434.078 232.528L434.102 232.48L434.175 232.31L434.297 231.969L434.807 230.584C434.977 230.122 435.123 229.66 435.293 229.174C435.633 228.251 435.901 227.303 436.192 226.355C436.338 225.893 436.46 225.407 436.606 224.921C436.751 224.435 436.897 223.973 437.019 223.487C437.554 221.567 438.015 219.647 438.453 217.702C438.866 215.758 439.231 213.814 439.571 211.845C439.887 209.876 440.154 207.908 440.373 205.939C440.592 203.97 440.762 201.977 440.883 200.008C441.005 198.04 441.078 196.047 441.078 194.102C441.078 193.13 441.078 192.158 441.029 191.21C441.005 190.748 441.005 190.262 440.98 189.825L440.956 189.169L440.932 188.707L463.438 186.544Z" fill="#D6E8FF"/>
<path d="M417.259 263.08C417.065 263.055 416.87 262.909 416.822 262.691C416.749 262.399 416.895 262.107 417.186 262.035C417.357 261.986 434.637 256.833 443.533 250.32C452.355 243.879 455.296 233.987 455.321 233.89C455.394 233.598 455.71 233.452 455.977 233.525C456.269 233.598 456.414 233.914 456.341 234.181C456.22 234.594 453.279 244.511 444.14 251.195C435.099 257.805 417.624 263.031 417.454 263.08C417.405 263.104 417.332 263.104 417.259 263.08Z" fill="#AACFFC"/>
<path d="M441.905 236.976C441.807 236.976 441.734 236.928 441.662 236.879C438.769 234.789 434.662 232.844 434.613 232.82C434.346 232.699 434.224 232.383 434.37 232.115C434.492 231.848 434.808 231.726 435.075 231.872C435.245 231.945 439.304 233.89 442.269 236.028C442.512 236.199 442.561 236.539 442.391 236.782C442.293 236.928 442.075 237.001 441.905 236.976Z" fill="#AACFFC"/>
<path d="M435.051 233.015C434.783 232.99 434.589 232.747 434.589 232.48C434.589 232.188 434.832 231.945 435.124 231.945C437.36 231.969 440.276 232.334 440.398 232.334C440.689 232.383 440.908 232.65 440.859 232.942C440.835 233.233 440.568 233.452 440.252 233.403C440.228 233.403 437.287 233.039 435.099 233.015C435.099 233.015 435.075 233.015 435.051 233.015Z" fill="#AACFFC"/>
<path d="M405.301 266.118C405.107 266.093 404.912 265.948 404.864 265.753L399.808 249.493C399.711 249.202 399.881 248.91 400.173 248.813C400.464 248.715 400.756 248.886 400.853 249.177L405.909 265.437C406.006 265.729 405.836 266.021 405.544 266.118C405.447 266.118 405.374 266.118 405.301 266.118Z" fill="#AACFFC"/>
<path d="M396.187 264.028C395.992 264.003 395.822 263.857 395.749 263.663C395.652 263.371 395.798 263.08 396.09 262.982L403.527 260.528C403.818 260.43 404.11 260.576 404.207 260.868C404.305 261.16 404.159 261.451 403.867 261.548L396.43 264.003C396.357 264.028 396.284 264.028 396.187 264.028Z" fill="#AACFFC"/>
<path d="M397.451 258.194C397.329 258.875 397.767 259.507 398.423 259.653C399.103 259.774 399.735 259.337 399.881 258.68C400.002 258 399.565 257.368 398.909 257.222C398.253 257.076 397.596 257.514 397.451 258.194Z" fill="#AACFFC"/>
<path d="M373.365 359.691L367.799 368.782L357.202 364.091L362.015 354.32L373.365 359.691Z" fill="#FDB3B1"/>
<path d="M323.637 369.268L363.716 387.01C364.25 386.597 364.761 385.892 365.223 385.017C366.973 381.736 368.285 375.854 369.257 372.209C369.379 371.771 369.476 371.382 369.573 371.018C369.743 370.41 369.914 369.924 370.059 369.559C371.299 366.764 368.625 366.157 368.625 366.157C362.816 368.344 360.848 360.348 357.299 361.101C357.299 361.101 355.768 361.417 351.32 362.875C346.873 364.334 340.626 363.823 335.158 363.702C328.109 363.556 325.314 365.282 324.245 366.861C323.418 368.125 323.637 369.268 323.637 369.268Z" fill="#004499"/>
<path d="M323.637 369.268L363.716 387.01C364.25 386.597 364.761 385.892 365.223 385.017L324.293 366.886C323.418 368.125 323.637 369.268 323.637 369.268Z" fill="#003371"/>
<path d="M398.253 272.024C401.971 268.354 431.332 260.187 450.8 265.607C453.036 269.909 455.88 280.798 448.88 290.86C423.262 295.041 408.971 303.669 408.971 303.669C408.971 303.669 399.881 324.668 394.485 332.349C389.09 340.053 376.719 364.504 376.719 364.504L358.077 356.532C358.077 356.58 388.118 282.013 398.253 272.024Z" fill="#011A39"/>
<path d="M378.712 359.935C378.639 359.935 378.566 359.91 378.517 359.886L360.264 352.303C359.997 352.181 359.851 351.865 359.973 351.598C360.094 351.331 360.41 351.185 360.677 351.306L378.93 358.889C379.198 359.011 379.343 359.327 379.222 359.594C379.125 359.813 378.93 359.935 378.712 359.935Z" fill="#113C70"/>
<path d="M375.65 358.403C375.577 358.403 375.528 358.379 375.455 358.355C375.188 358.257 375.042 357.942 375.163 357.65C375.212 357.553 379.028 348.025 387.923 334.512C396.77 321.095 406.031 298.395 406.103 298.176C406.225 297.909 406.517 297.763 406.808 297.884C407.076 298.006 407.221 298.297 407.1 298.589C407.003 298.808 397.718 321.606 388.823 335.119C379.976 348.536 376.209 357.966 376.16 358.063C376.063 358.257 375.868 358.403 375.65 358.403Z" fill="#113C70"/>
<path d="M420.419 361.296L419.009 371.868H407.416L407.878 360.98L420.419 361.296Z" fill="#FDB3B1"/>
<path d="M378.808 390.17H422.654C422.97 389.586 423.165 388.736 423.237 387.739C423.505 384.021 422.338 378.115 421.755 374.372C421.682 373.934 421.633 373.521 421.585 373.156C421.512 372.524 421.463 372.014 421.463 371.625C421.463 368.587 418.765 369.097 418.765 369.097C414.318 373.448 409.311 366.934 406.37 369.073C406.37 369.073 405.106 369.972 401.63 373.108C398.155 376.243 392.225 378.309 387.193 380.424C380.68 383.146 378.833 385.868 378.492 387.739C378.176 389.222 378.808 390.17 378.808 390.17Z" fill="#004499"/>
<path d="M378.809 390.17H422.655C422.971 389.586 423.166 388.736 423.239 387.739H378.469C378.177 389.222 378.809 390.17 378.809 390.17Z" fill="#003371"/>
<path d="M439.96 275.986C452.817 286.607 480.525 290.812 502.059 278.683C504.1 271.878 506.75 248.108 507.041 240.987C507.09 239.577 507.139 238.143 507.139 236.733C507.187 229.904 506.677 223.05 505.923 215.904C505.875 215.515 505.85 215.126 505.802 214.737C505.17 208.856 504.368 202.755 503.566 196.29C501.986 183.481 497.222 175.825 489.688 175.072C486.188 174.731 483.393 173.929 481.302 173.079C481.059 172.982 480.816 172.884 480.573 172.763C478.094 171.693 476.66 170.648 476.66 170.648L460.036 171.645C458.723 173.808 456.998 175.242 455.126 176.287C454.907 176.409 454.713 176.506 454.494 176.627C448.734 179.52 441.831 179.447 440.835 186.641C440.203 191.162 444.189 200.154 444.942 218.821C444.991 220.182 445.04 221.616 445.064 223.074C445.088 224.459 445.088 225.893 445.064 227.352C445.04 228.737 445.015 230.147 444.942 231.605C444.894 232.893 444.821 234.205 444.748 235.542C444.675 236.928 444.554 238.337 444.432 239.796C443.8 247.646 441.929 265.875 439.96 275.986Z" fill="#D6E8FF"/>
<path d="M443.314 250.465C443.022 250.417 442.804 250.149 442.852 249.858C446.133 223.949 440.981 195.804 440.932 195.536C440.884 195.245 441.078 194.953 441.37 194.904C441.661 194.856 441.953 195.05 442.002 195.342C442.05 195.634 447.227 223.924 443.922 250.004C443.897 250.295 443.63 250.49 443.314 250.465Z" fill="#AACFFC"/>
<path d="M469.442 271.003C469.539 271.684 470.171 272.17 470.876 272.073C471.556 271.975 472.042 271.343 471.945 270.639C471.848 269.958 471.216 269.472 470.511 269.569C469.806 269.666 469.32 270.323 469.442 271.003Z" fill="#AACFFC"/>
<path d="M469.587 277.079C469.685 277.76 470.317 278.246 471.021 278.149C471.702 278.052 472.188 277.42 472.091 276.715C471.994 276.034 471.362 275.548 470.657 275.645C469.976 275.743 469.49 276.399 469.587 277.079Z" fill="#AACFFC"/>
<path d="M454.008 212.793C452.817 212.647 451.797 212.137 450.946 211.262C447.446 207.665 448.175 199.158 448.2 198.793C448.224 198.526 448.443 198.331 448.71 198.307L459.793 197.651C460.06 197.627 460.303 197.821 460.352 198.064C460.425 198.429 462.151 206.79 459.112 210.776C458.14 212.039 456.803 212.744 455.151 212.841C454.738 212.841 454.373 212.841 454.008 212.793ZM449.245 199.328C449.147 201.127 449.002 207.689 451.724 210.484C452.623 211.408 453.717 211.821 455.078 211.723C456.439 211.651 457.484 211.116 458.262 210.095C460.619 206.984 459.696 200.495 459.38 198.72L449.245 199.328Z" fill="#AACFFC"/>
<path d="M451.529 149.843C451.529 149.843 450.241 146.902 449.828 143.621C449.415 140.437 450.776 139.416 450.776 139.416C450.776 139.416 446.425 132.49 452.064 128.601C456.512 125.514 469.393 127.07 476.49 131.736C484.632 137.083 479.285 141.944 479.723 147.388C480.185 153.027 476.903 159.833 476.903 159.833C476.903 159.833 475.567 165.253 469.174 161.996C464.265 159.468 457.508 148.944 451.529 149.843Z" fill="#061830"/>
<path d="M459.623 168.874L459.866 173.103C460.376 173.468 460.911 173.784 461.421 174.051C469.029 178.013 476.612 172.082 476.612 172.082L475.737 157.426L461.543 167.489L459.623 168.874Z" fill="#FDB3B1"/>
<path d="M459.623 168.753L459.89 173.103C460.4 173.468 460.935 173.784 461.445 174.051C467.546 171.207 471.702 164.378 471.702 164.378L461.567 167.513L459.623 168.753Z" fill="#FC9492"/>
<path d="M476.344 167.805C476.344 167.805 481.327 168.339 483.028 173.905C478.507 179.228 474.521 183.846 467.716 185.547L467.108 175.436C467.108 175.412 473.087 173.541 476.344 167.805Z" fill="#D6E8FF"/>
<path d="M459.549 170.284C459.549 170.284 455.199 171.499 453.813 177.235C458.577 182.387 461.081 184.283 467.692 185.547L467.084 175.436C467.108 175.412 463.462 175.582 459.549 170.284Z" fill="#D6E8FF"/>
<path d="M461.907 247.622L465.115 254.208L466.549 257.174L470.608 265.51L472.115 262.107L472.65 260.892L473.865 258.17L474.4 256.955L475.615 254.233L476.15 253.017L477.365 250.271L477.9 249.08L479.042 246.504L478.994 246.236L478.678 244.268L477.948 239.82L477.632 237.851L476.903 233.403L476.587 231.435L475.858 226.987L475.542 225.018L474.813 220.546L474.497 218.577L473.768 214.13L473.452 212.161L472.723 207.713L472.407 205.745L471.678 201.297L471.362 199.328L470.633 194.88L470.317 192.912L469.563 188.294L466.136 188.367L466.088 189.144L465.966 190.724L465.723 194.321L465.602 195.901L465.334 199.474L465.237 201.078L464.97 204.651L464.872 206.231L464.605 209.828L464.484 211.408L464.24 214.98L464.119 216.56L463.876 220.157L463.754 221.737L463.511 225.31L463.39 226.89L463.122 230.487L463.025 232.067L462.758 235.639L462.661 237.219L462.393 240.816L462.272 242.396L462.029 245.969L461.907 247.573V247.622Z" fill="#EA4938"/>
<path d="M469.564 188.294L468.008 190.943L466.136 188.367L465.966 190.675L468.081 192.596L469.855 190.068L469.564 188.294Z" fill="#F94254"/>
<path d="M472.31 183.773L468.032 190.991L463.147 184.332L467.279 178.256L472.31 183.773Z" fill="#EA4938"/>
<path d="M460.765 189.217C460.619 189.193 460.473 189.12 460.376 188.974C460.327 188.926 456.511 182.947 453.376 177.478C453.23 177.211 453.328 176.895 453.571 176.749C453.838 176.603 454.154 176.7 454.3 176.943C456.779 181.27 459.695 185.912 460.813 187.662L466.817 177.94C466.914 177.794 467.06 177.697 467.23 177.697C467.4 177.672 467.57 177.745 467.692 177.891L475.299 187.03C479.309 183.019 482.469 173.808 482.518 173.711C482.615 173.419 482.907 173.273 483.198 173.37C483.49 173.468 483.636 173.759 483.539 174.051C483.393 174.464 480.039 184.235 475.615 188.196C475.518 188.294 475.372 188.342 475.226 188.342C475.08 188.342 474.935 188.269 474.862 188.148L467.351 179.131L461.275 188.95C461.178 189.096 461.008 189.193 460.813 189.193C460.813 189.242 460.789 189.242 460.765 189.217Z" fill="#AACFFC"/>
<path d="M467.23 178.79C466.987 178.766 466.768 178.547 466.768 178.28L466.622 175.898C466.598 175.606 466.841 175.339 467.133 175.339C467.424 175.315 467.692 175.558 467.692 175.849L467.838 178.231C467.862 178.523 467.619 178.79 467.327 178.79C467.279 178.79 467.254 178.79 467.23 178.79Z" fill="#AACFFC"/>
<path d="M453.231 150.451C453.231 150.451 450.654 147.753 449.463 150.67C448.272 153.586 449.658 159.274 453.255 158.107L453.231 150.451Z" fill="#FF7344"/>
<path d="M451.262 160.562C451.262 160.562 451.772 169.311 460.862 168.728C469.904 168.169 475.615 160.708 475.931 160.367V158.52L475.883 148.968L475.858 143.864C475.858 143.864 476.466 134.628 467.643 133.462C461.202 132.611 455.296 134.045 452.477 137.545C452.38 137.667 452.307 137.764 452.21 137.885C451.335 139.1 450.824 140.559 450.751 142.26L451.019 151.423L451.092 153.659L451.262 160.562Z" fill="#FDB3B1"/>
<path d="M471.921 149.552C471.775 150.548 472.504 151.447 473.501 151.204C474.522 150.888 475.858 148.968 475.858 148.968L477.067 142.632C477.067 142.632 476.442 133.396 467.619 132.229C461.178 131.379 455.272 132.813 452.453 136.312C452.356 135.201 452.283 136.531 452.186 137.885C453.571 137.302 454.64 137.691 456.925 138.542C460.23 139.757 463.463 137.715 466.817 136.451C469.612 135.406 471.484 137.788 470.487 139.344C470.487 139.344 469.32 140.923 470.754 143.913C472.188 146.902 472.237 147.34 471.921 149.552Z" fill="#061830"/>
<path d="M472.869 156.989C472.917 157.086 474.23 159.687 475.931 160.367V158.52C475.931 158.496 474.473 158.35 472.869 156.989Z" fill="#1F1118"/>
<path d="M474.108 150.815C474.108 150.815 477.317 145.906 480.112 149.454C482.397 152.371 478.897 160.537 474.546 158.058L474.108 150.815Z" fill="#FDB3B1"/>
<path d="M474.935 156.624C475.105 156.624 475.275 156.479 475.275 156.284C475.445 152.711 478.362 151.302 478.483 151.229C478.653 151.131 478.751 150.937 478.653 150.743C478.58 150.572 478.362 150.475 478.167 150.572C478.021 150.645 474.74 152.225 474.546 156.235C474.546 156.43 474.692 156.6 474.886 156.624C474.91 156.624 474.91 156.624 474.935 156.624Z" fill="#FC9492"/>
<path d="M478.143 154.242C478.24 154.242 478.337 154.194 478.41 154.097C478.532 153.926 478.483 153.708 478.337 153.586C478.192 153.489 476.83 152.541 475.785 152.881C475.591 152.93 475.494 153.149 475.542 153.343C475.615 153.538 475.81 153.635 476.004 153.586C476.612 153.392 477.608 153.951 477.924 154.194C477.997 154.218 478.07 154.242 478.143 154.242Z" fill="#FC9492"/>
<path d="M504.052 265.923C504.052 265.923 513.093 301.627 466.185 301.627C441.126 301.627 429.217 299.197 429.217 299.197C429.217 299.197 428.609 321.314 427.443 330.647C426.276 339.98 422.144 363.24 422.144 363.24L402.409 364.771C402.409 364.771 399.249 283.763 411.353 276.326C423.457 268.888 440.835 268.645 470.705 265.777C470.705 265.777 497.514 261.232 504.052 265.923Z" fill="#113C70"/>
<path d="M419.471 356.775C419.422 356.775 419.398 356.775 419.35 356.751C419.058 356.678 418.888 356.386 418.961 356.094C421.683 344.695 422.777 328.387 423.652 315.262C424.502 302.332 425.013 295.527 426.374 294.336C427.856 293.023 432.255 293.485 439.523 294.263C448.54 295.211 462.175 296.669 476.879 294.992C484.171 294.166 489.785 291.298 493.504 286.485C500.212 277.881 498.681 265.777 498.656 265.656C498.608 265.364 498.826 265.097 499.118 265.048C499.41 265 499.677 265.218 499.726 265.51C499.799 266.021 501.354 278.149 494.354 287.141C490.441 292.173 484.584 295.186 477.001 296.061C462.175 297.763 448.491 296.304 439.425 295.332C433.155 294.676 428.221 294.141 427.103 295.138C426.86 295.357 426.349 296.475 425.815 301.384C425.426 305.006 425.11 309.794 424.745 315.335C423.87 328.484 422.777 344.866 420.03 356.337C419.933 356.605 419.714 356.775 419.471 356.775Z" fill="#011A39"/>
<path d="M402.652 358.379C402.36 358.379 402.142 358.16 402.117 357.869C402.093 357.577 402.336 357.31 402.628 357.31L422.801 356.094C423.092 356.07 423.36 356.313 423.36 356.605C423.384 356.896 423.141 357.164 422.849 357.164L402.676 358.379H402.652Z" fill="#011A39"/>
<path d="M439.231 258.729C439.231 258.729 427.127 258.049 422.825 261.232L424.113 269.836C424.113 269.836 431.672 267.819 433.617 268.354C435.561 268.888 436.339 272.315 443.241 271.149L439.231 258.729Z" fill="#FDB3B1"/>
<path d="M501.087 185.717L501.233 186.106L501.33 186.398L501.524 186.908C501.646 187.248 501.743 187.564 501.865 187.905C502.083 188.561 502.278 189.193 502.472 189.8C502.837 191.064 503.177 192.304 503.493 193.543C504.125 196.047 504.636 198.55 505.049 201.054C505.875 206.085 506.312 211.213 506.288 216.39C506.288 217.678 506.24 218.991 506.191 220.279C506.118 221.567 506.021 222.879 505.899 224.168C505.778 225.456 505.608 226.768 505.413 228.056C505.219 229.344 505 230.657 504.733 231.945C504.465 233.233 504.174 234.521 503.833 235.81C503.663 236.441 503.493 237.098 503.299 237.73C503.104 238.362 502.934 238.993 502.715 239.65C502.327 240.914 501.865 242.177 501.379 243.417C501.136 244.049 500.893 244.657 500.625 245.288L500.212 246.261C499.847 247.087 499.483 247.768 499.094 248.399C498.341 249.639 497.587 250.538 496.858 251.316C496.153 252.094 495.448 252.726 494.792 253.309C493.48 254.451 492.24 255.326 491.025 256.128C489.81 256.93 488.643 257.611 487.501 258.267C486.334 258.923 485.216 259.507 484.074 260.066C481.813 261.184 479.577 262.18 477.341 263.128C475.105 264.076 472.893 264.927 470.682 265.753C466.258 267.406 461.81 268.888 457.363 270.274C455.127 270.954 452.915 271.611 450.679 272.267C449.561 272.583 448.443 272.899 447.325 273.215L445.623 273.677L443.873 274.138L438.842 257.319L440.349 256.785L441.905 256.226L445.016 255.083C447.082 254.306 449.148 253.503 451.189 252.701C455.297 251.097 459.331 249.396 463.293 247.646C465.262 246.771 467.206 245.847 469.102 244.924C470.998 244 472.845 243.052 474.595 242.056C476.32 241.059 477.997 240.063 479.31 239.091C479.966 238.605 480.549 238.119 480.914 237.754C481.084 237.584 481.23 237.414 481.279 237.365C481.327 237.316 481.279 237.316 481.084 237.584C480.987 237.73 480.89 237.9 480.744 238.216L480.963 237.608C481.133 237.171 481.279 236.733 481.424 236.296C481.716 235.421 481.983 234.521 482.226 233.622C482.713 231.824 483.101 229.976 483.393 228.129C484.001 224.411 484.195 220.57 484.098 216.682C484.049 214.737 483.903 212.793 483.685 210.848C483.466 208.904 483.199 206.935 482.834 205.015C482.494 203.071 482.056 201.151 481.546 199.255C481.303 198.307 481.035 197.384 480.744 196.46C480.598 195.998 480.476 195.561 480.331 195.123L480.112 194.516L479.966 194.102L501.087 185.717Z" fill="#D6E8FF"/>
<path d="M463.949 268.743C463.755 268.718 463.56 268.573 463.512 268.354C463.439 268.062 463.585 267.771 463.876 267.698C464.046 267.649 481.327 262.496 490.223 255.983C499.045 249.518 501.986 239.65 502.011 239.553C503.25 234.667 504.125 227.692 504.125 227.619C504.174 227.327 504.441 227.109 504.733 227.157C505.024 227.206 505.243 227.473 505.195 227.765C505.195 227.838 504.295 234.886 503.031 239.844C502.91 240.282 499.945 250.198 490.83 256.858C481.789 263.469 464.314 268.694 464.144 268.743C464.095 268.743 464.022 268.767 463.949 268.743Z" fill="#AACFFC"/>
<path d="M488.594 242.639C488.497 242.639 488.424 242.591 488.351 242.542C485.459 240.452 481.351 238.508 481.327 238.483C481.06 238.362 480.938 238.046 481.084 237.778C481.206 237.511 481.521 237.389 481.789 237.535C481.959 237.608 486.018 239.553 488.983 241.691C489.226 241.862 489.275 242.202 489.105 242.445C488.983 242.591 488.789 242.664 488.594 242.639Z" fill="#AACFFC"/>
<path d="M481.765 238.678C481.497 238.653 481.303 238.41 481.303 238.143C481.303 237.851 481.546 237.608 481.837 237.608C484.073 237.633 486.99 237.997 487.112 237.997C487.403 238.046 487.622 238.313 487.573 238.605C487.549 238.896 487.282 239.115 486.966 239.067C486.941 239.067 484.001 238.702 481.813 238.678C481.789 238.678 481.765 238.678 481.765 238.678Z" fill="#AACFFC"/>
<path d="M480.987 236.174C480.963 236.174 480.939 236.174 480.939 236.174C480.647 236.101 480.477 235.81 480.55 235.518C480.623 235.251 486.869 208.977 483.636 198.963C483.539 198.672 483.709 198.38 483.977 198.283C484.268 198.186 484.56 198.356 484.657 198.623C487.987 208.928 481.862 234.667 481.595 235.761C481.498 236.028 481.255 236.198 480.987 236.174Z" fill="#AACFFC"/>
<path d="M484.609 203.849C484.487 203.824 484.366 203.776 484.293 203.679L482.032 201.272C481.838 201.054 481.838 200.713 482.057 200.519C482.275 200.324 482.616 200.324 482.81 200.543L485.07 202.949C485.265 203.168 485.265 203.508 485.046 203.703C484.925 203.824 484.754 203.873 484.609 203.849Z" fill="#AACFFC"/>
<path d="M451.991 271.781C451.797 271.756 451.602 271.611 451.554 271.416L446.498 255.156C446.401 254.865 446.571 254.573 446.863 254.476C447.154 254.379 447.446 254.549 447.543 254.84L452.599 271.1C452.696 271.392 452.526 271.684 452.234 271.781C452.161 271.781 452.064 271.781 451.991 271.781Z" fill="#AACFFC"/>
<path d="M442.902 269.691C442.707 269.666 442.537 269.52 442.464 269.326C442.367 269.034 442.513 268.743 442.804 268.645L450.242 266.191C450.533 266.093 450.825 266.239 450.922 266.531C451.019 266.823 450.873 267.114 450.582 267.212L443.12 269.666C443.047 269.691 442.974 269.691 442.902 269.691Z" fill="#AACFFC"/>
<path d="M444.165 263.857C444.044 264.538 444.481 265.17 445.137 265.316C445.818 265.437 446.45 265 446.596 264.344C446.717 263.663 446.28 263.031 445.624 262.885C444.943 262.739 444.287 263.177 444.165 263.857Z" fill="#AACFFC"/>
<path d="M458.019 274.576L400.44 277.176C399.906 277.201 399.444 276.788 399.419 276.229L399.152 270.444C399.128 269.909 399.541 269.447 400.1 269.423L457.678 266.823C458.213 266.798 458.675 267.211 458.699 267.77L458.966 273.555C458.991 274.09 458.578 274.551 458.019 274.576Z" fill="#71A6E7"/>
<path d="M393.246 277.492C391.01 277.59 388.968 276.18 388.312 274.041L375.309 232.844C374.507 230.317 376.33 227.74 378.955 227.619L405.617 226.428C407.416 226.355 409.044 227.473 409.603 229.174L425.085 276.058L393.246 277.492Z" fill="#2E71C4"/>
<path d="M409.603 229.174L424.964 275.669L428.002 275.524L412.641 229.028C412.082 227.327 410.454 226.185 408.655 226.282L405.617 226.428C407.416 226.331 409.044 227.449 409.603 229.174Z" fill="#71A6E7"/>
<path d="M403.114 252.458C403.843 255.059 402.311 257.246 399.687 257.368C397.062 257.489 394.364 255.472 393.635 252.896C392.906 250.295 394.437 248.108 397.062 247.986C399.662 247.865 402.384 249.882 403.114 252.458Z" fill="#97C6FF"/>
<path d="M519.899 280.117V315.602C519.899 321.849 518.149 326.88 515.961 326.88H446.474C444.287 326.88 442.537 321.824 442.537 315.602V280.117C442.537 273.871 448.078 267.698 467.084 268.84H515.961C518.149 268.84 519.899 273.871 519.899 280.117Z" fill="#F1784F"/>
<path d="M529.11 280.117V315.602C529.11 321.849 527.36 326.88 525.173 326.88H455.685C453.497 326.88 451.748 321.824 451.748 315.602V280.117C451.748 273.871 457.678 268.305 471.702 268.84L521.332 268.5C529.134 268.5 529.11 273.871 529.11 280.117Z" fill="#DB653E"/>
<g filter="url(#filter0_d_3986_7969)">
<path d="M208.609 133.118C229.932 133.118 247.218 115.832 247.218 94.5092C247.218 73.1859 229.932 55.9 208.609 55.9C187.286 55.9 170 73.1859 170 94.5092C170 115.832 187.286 133.118 208.609 133.118Z" fill="white"/>
<path d="M201.822 93.3966C200.487 93.9529 199.151 94.3979 197.705 94.9543C192.364 98.181 193.477 109.864 193.588 121.547H207.83C207.83 121.547 208.275 121.547 208.387 121.547V93.2853L201.822 93.3966Z" fill="#6798D7"/>
<path d="M190.807 121.658H193.7C193.7 118.765 193.589 114.092 193.589 111.533H186.134C186.134 112.423 186.245 114.871 186.356 117.319C186.356 119.655 188.359 121.658 190.807 121.658Z" fill="#FABB85"/>
<path d="M197.706 94.9543C195.369 95.7331 192.81 96.6233 189.583 98.0697C187.692 98.9598 186.134 101.296 186.134 105.413C186.134 107.082 186.023 108.974 186.134 111.533H193.589C193.589 103.522 194.145 97.2908 197.706 94.9543Z" fill="#B1D7F0"/>
<path d="M186.022 109.419C186.022 110.086 186.022 110.754 186.022 111.422H193.477C193.477 110.754 193.477 110.086 193.477 109.419H186.022Z" fill="#537BAD"/>
<path d="M215.174 93.3966C216.509 93.9529 217.844 94.398 219.291 94.9543C224.52 98.181 223.519 109.864 223.408 121.658H209.166C209.166 121.658 208.721 121.658 208.609 121.658V93.2853L215.174 93.3966Z" fill="#5488CA"/>
<path d="M226.189 121.658H223.408C223.408 118.765 223.519 114.092 223.519 111.533H230.974C230.974 112.423 230.863 114.871 230.751 117.319C230.64 119.655 228.637 121.658 226.189 121.658Z" fill="#FABB85"/>
<path d="M219.291 94.9543C221.628 95.7331 224.187 96.6233 227.413 98.0697C229.305 98.9598 230.863 101.296 230.863 105.413C230.863 107.082 230.974 108.974 230.863 111.533H223.408C223.408 103.522 222.852 97.2908 219.291 94.9543Z" fill="#9AC3DD"/>
<path d="M230.974 109.419C230.974 110.086 230.974 110.754 230.974 111.422H223.408C223.408 110.754 223.408 110.086 223.408 109.419H230.974Z" fill="#446EA3"/>
<path d="M202.601 85.7192C202.824 87.6107 202.49 91.9501 201.822 93.3965C203.38 95.7331 205.828 97.2908 208.498 97.2908C211.057 97.2908 213.616 95.6219 215.174 93.3965C214.506 91.9501 214.284 87.4995 214.395 85.7192H202.601Z" fill="#FABB85"/>
<path d="M217.622 78.5982C218.512 77.263 219.847 77.4856 219.624 80.0447C219.513 81.3798 218.178 85.0516 216.954 83.2714C217.065 81.0461 217.622 78.5982 217.622 78.5982Z" fill="#FABB85"/>
<path d="M199.374 78.5982C198.484 77.263 197.149 77.4856 197.371 80.0447C197.483 81.3798 198.818 85.0516 200.042 83.2714C199.93 81.0461 199.374 78.5982 199.374 78.5982Z" fill="#FABB85"/>
<path d="M208.498 93.0627C210.946 93.0627 212.949 91.7276 214.395 89.7248C214.284 88.1671 214.284 86.6093 214.395 85.7192H202.601C202.712 86.7206 202.712 88.1671 202.601 89.7248C204.048 91.7276 206.05 93.0627 208.498 93.0627Z" fill="#CF8B50"/>
<path d="M208.498 92.6177C214.952 92.6177 217.733 83.8277 218.289 77.263C218.623 73.3687 215.953 67.2491 208.498 67.2491C201.043 67.2491 198.373 73.2575 198.707 77.263C199.263 83.8277 202.045 92.6177 208.498 92.6177Z" fill="#FABB85"/>
<path d="M208.498 71.1434C204.827 71.0321 203.046 69.5857 201.711 69.9195C200.376 70.2533 199.82 74.0363 200.932 76.2616C199.374 77.7081 199.931 81.2686 200.042 81.8249C199.931 81.8249 199.708 81.8249 199.486 81.8249C198.707 79.5996 198.484 75.7053 198.484 74.3701C198.707 69.5857 202.824 66.1365 208.498 66.1365C214.062 66.1365 218.29 69.5857 218.512 74.3701C218.512 75.7053 218.29 79.5996 217.511 81.8249C217.177 81.8249 217.066 81.8249 216.954 81.8249C217.066 81.2686 217.622 77.7081 216.064 76.2616C217.066 74.0363 216.621 70.2533 215.285 69.9195C213.95 69.5857 212.17 71.2547 208.498 71.1434Z" fill="#6C4F40"/>
<path d="M201.822 93.3965C201.043 93.7303 200.264 94.0641 199.485 94.2867L199.819 94.7317C201.933 97.8472 205.16 99.7387 208.498 99.7387V97.2908C205.939 97.4021 203.38 95.7331 201.822 93.3965Z" fill="#A8C1E3"/>
<path d="M215.174 93.3965C213.616 95.7331 211.168 97.2908 208.498 97.2908V99.7387C211.725 99.7387 215.063 97.8472 217.177 94.7317L217.511 94.2867C216.732 94.0641 215.953 93.7303 215.174 93.3965Z" fill="#93ADD1"/>
<path d="M214.84 92.1726C214.952 92.6177 215.063 93.0627 215.174 93.3965C215.063 97.4021 211.614 106.637 208.053 112.646L210.056 113.869C213.839 107.527 217.288 97.8472 217.511 93.5078C217.511 93.174 216.732 91.9501 214.84 92.1726Z" fill="#F0F0F0"/>
<path d="M201.822 93.3965C201.933 93.0627 202.156 92.5064 202.267 91.8388C200.042 91.505 199.485 92.9515 199.485 93.3965C199.485 98.9598 201.043 108.195 202.935 113.647L205.16 112.868C203.38 107.639 201.822 98.7373 201.822 93.3965Z" fill="#F0F0F0"/>
<path d="M214.952 115.205H212.949V113.313H214.952C215.285 113.313 215.619 113.647 215.619 113.981V114.537C215.619 114.871 215.285 115.205 214.952 115.205Z" fill="#FABB85"/>
<path d="M215.953 117.096H213.95V115.205H215.953C216.287 115.205 216.621 115.538 216.621 115.872V116.429C216.621 116.762 216.398 117.096 215.953 117.096Z" fill="#FABB85"/>
<path d="M215.508 118.988H213.505V117.096H215.508C215.842 117.096 216.176 117.43 216.176 117.764V118.32C216.176 118.765 215.842 118.988 215.508 118.988Z" fill="#FABB85"/>
<path d="M214.284 120.99H212.281V119.099H214.284C214.618 119.099 214.952 119.433 214.952 119.767V120.323C214.952 120.657 214.729 120.99 214.284 120.99Z" fill="#FABB85"/>
<path d="M211.947 112.646H193.7V121.658H212.059C213.394 121.658 214.506 120.434 214.506 118.876V115.427C214.506 113.869 213.394 112.646 211.947 112.646Z" fill="#F0F0F0"/>
<path d="M201.933 121.658H203.602L206.718 112.646H205.049L201.933 121.658ZM196.481 121.658H198.15L201.266 112.646H199.597L196.481 121.658ZM211.947 112.646H210.39L207.274 121.658H208.943L212.059 112.646C212.059 112.646 212.059 112.646 211.947 112.646Z" fill="#D6D6D6"/>
<path d="M219.847 102.743C225.077 102.52 229.638 101.408 233.533 99.2936V96.0669C228.971 98.8486 223.408 100.072 217.065 99.85C217.733 112.2 220.07 126.665 233.533 132.785V129.669C223.408 124.551 220.737 113.536 219.847 102.743Z" fill="#D43B2F"/>
<path d="M233.533 96.1782V99.4049C237.427 101.519 241.989 102.632 247.218 102.854C246.328 113.647 243.658 124.662 233.533 129.892V133.007C246.996 126.888 249.332 112.423 250 100.073C243.658 100.073 238.095 98.9598 233.533 96.1782Z" fill="#BA0E00"/>
<path d="M247.218 102.743C241.989 102.52 237.427 101.408 233.533 99.2936V129.78C243.658 124.551 246.328 113.536 247.218 102.743Z" fill="#E64A3C"/>
<path d="M233.533 129.78V99.4049C229.639 101.519 225.077 102.632 219.847 102.854C220.737 113.536 223.408 124.551 233.533 129.78Z" fill="#FF6052"/>
<path d="M233.533 130.114L233.421 130.003C222.629 124.44 220.403 112.534 219.625 102.743V102.409H219.958C225.188 102.187 229.638 101.074 233.533 99.0711L233.644 98.9598L233.755 99.0711C237.538 101.074 242.1 102.298 247.33 102.409H247.663V102.743C246.885 112.534 244.659 124.44 233.867 130.003L233.533 130.114ZM220.181 103.077C220.96 112.534 223.296 123.995 233.533 129.447C243.769 123.995 246.106 112.646 246.885 103.077C241.766 102.854 237.316 101.741 233.533 99.7387C229.75 101.741 225.299 102.854 220.181 103.077Z" fill="white"/>
<path d="M230.64 105.525V110.309H225.855V116.206H230.64V120.99H233.533V105.525H230.64Z" fill="white"/>
<path d="M236.537 110.309V105.525H233.533V120.99H236.537V116.206H241.21V110.309H236.537Z" fill="#FFC3BF"/>
</g>
<g filter="url(#filter1_d_3986_7969)">
<path d="M343.9 85C365.991 85 383.9 67.0914 383.9 45C383.9 22.9086 365.991 5 343.9 5C321.809 5 303.9 22.9086 303.9 45C303.9 67.0914 321.809 85 343.9 85Z" fill="white"/>
<path d="M320.154 58.7176H313.352C312.661 58.7176 312.084 59.2939 312.084 59.9856V78.3141C312.084 79.0057 312.661 79.5821 313.352 79.5821H320.154C320.845 79.5821 321.422 79.0057 321.422 78.3141V60.1008C321.537 59.2939 320.96 58.7176 320.154 58.7176Z" fill="#212121"/>
<path d="M318.885 63.6743V78.0836C318.885 78.3141 319.116 78.5447 319.347 78.5447C319.577 78.5447 319.808 78.3141 319.808 78.0836V63.6743H318.885ZM313.698 78.0836C313.698 78.3141 313.929 78.5447 314.159 78.5447C314.39 78.5447 314.62 78.3141 314.62 78.0836V63.5591C314.274 63.5591 313.929 63.4438 313.698 63.3285V78.0836ZM316.349 78.0836C316.349 78.3141 316.58 78.5447 316.811 78.5447C317.041 78.5447 317.272 78.3141 317.272 78.0836V63.6743H316.349V78.0836Z" fill="#454545"/>
<path d="M367.531 58.7176H374.332C375.024 58.7176 375.6 59.2939 375.6 59.9856V78.3141C375.6 79.0058 375.024 79.5821 374.332 79.5821H367.531C366.839 79.5821 366.263 79.0058 366.263 78.3141V60.1009C366.263 59.2939 366.839 58.7176 367.531 58.7176Z" fill="#212121"/>
<path d="M368.799 63.6743V78.0836C368.799 78.3141 368.568 78.5447 368.338 78.5447C368.107 78.5447 367.877 78.3141 367.877 78.0836V63.6743H368.799ZM373.986 78.0836C373.986 78.3141 373.756 78.5447 373.525 78.5447C373.295 78.5447 373.064 78.3141 373.064 78.0836V63.5591C373.41 63.5591 373.756 63.4438 373.986 63.3285V78.0836ZM371.45 78.0836C371.45 78.3141 371.22 78.5447 370.989 78.5447C370.759 78.5447 370.528 78.3141 370.528 78.0836V63.6743H371.45V78.0836Z" fill="#454545"/>
<path d="M322.574 43.5014H343.785H365.11C366.724 43.5014 368.338 43.8473 369.721 44.6542L365.11 32.6657C364.88 31.9741 364.419 31.3977 363.957 30.8213C362.574 29.438 360.614 28.6311 358.424 28.4006H357.963C354.044 28.17 349.087 27.9395 344.015 27.9395C338.943 27.9395 333.986 28.0547 330.067 28.4006H329.606C327.416 28.5158 325.456 29.438 324.073 30.8213C323.496 31.2824 323.15 31.9741 322.92 32.6657L318.194 44.6542C319.346 43.9625 320.96 43.5014 322.574 43.5014Z" fill="#F13E23"/>
<path d="M366.494 40.7349C367.07 41.657 366.263 42.6945 365.226 42.6945H322.69C321.537 42.6945 320.845 41.657 321.422 40.7349L323.496 34.1642C323.958 32.5504 325.226 31.2824 326.839 30.5908C327.646 30.2449 328.684 30.0144 329.606 29.8991H330.067C333.986 29.6686 338.943 29.5533 343.9 29.5533C348.972 29.5533 353.813 29.6686 357.733 29.8991H358.194C359.116 30.0144 359.923 30.1297 360.73 30.4755C362.459 31.1671 363.727 32.5504 364.188 34.1642L366.494 40.7349Z" fill="#A6CDE0"/>
<path d="M353.352 40.2738H334.332C332.257 40.2738 330.874 38.0836 331.681 36.2392L333.295 32.781C333.756 31.7435 334.793 31.0519 335.946 31.0519H351.854C353.007 31.0519 354.044 31.7435 354.505 32.781L356.119 36.2392C356.926 38.1988 355.543 40.2738 353.352 40.2738Z" fill="#BDE9FF"/>
<path d="M340.903 42.6945V42.1181C340.903 40.1585 339.289 38.6599 337.445 38.6599H335.831C336.407 38.4294 336.753 37.853 336.753 37.1614V36.4697C336.753 35.5475 336.061 34.8559 335.139 34.8559H331.681C330.759 34.8559 330.067 35.5475 330.067 36.4697V37.1614C330.067 37.853 330.413 38.3141 330.989 38.6599H329.376C327.416 38.6599 325.917 40.2738 325.917 42.1181V42.6945H340.903Z" fill="#94B7C9"/>
<path d="M361.883 42.6945V42.1181C361.883 40.1585 360.269 38.6599 358.425 38.6599H356.811C357.387 38.4294 357.733 37.853 357.733 37.1614V36.4697C357.733 35.5475 357.041 34.8559 356.119 34.8559H352.661C351.739 34.8559 351.047 35.5475 351.047 36.4697V37.1614C351.047 37.853 351.393 38.3141 351.969 38.6599H350.356C348.396 38.6599 346.897 40.2738 346.897 42.1181V42.6945H361.883Z" fill="#94B7C9"/>
<path opacity="0.4" d="M343.9 29.5533C341.133 29.5533 338.482 29.5533 335.946 29.6686L327.761 42.6945H340.557L348.857 29.5533C347.127 29.5533 345.514 29.5533 343.9 29.5533ZM351.969 29.6686L343.785 42.6945H347.704L355.773 29.7838C354.62 29.6686 353.352 29.6686 351.969 29.6686Z" fill="#D6F1FF"/>
<path d="M341.249 41.196C341.249 41.196 342.056 41.196 343.324 41.196C343.9 41.196 344.592 41.196 345.399 41.3112C346.205 41.3112 347.012 41.4265 347.819 41.4265C348.626 41.4265 349.433 41.5418 350.24 41.5418C351.047 41.5418 351.739 41.657 352.315 41.657C353.583 41.7723 354.39 41.8876 354.39 41.8876C354.505 41.8876 354.736 42.0029 354.62 42.1181C354.62 42.2334 354.505 42.3487 354.275 42.3487C354.275 42.3487 353.468 42.3487 352.2 42.3487C351.623 42.3487 350.932 42.3487 350.125 42.2334C349.318 42.2334 348.511 42.1181 347.704 42.1181C346.897 42.1181 346.09 42.0029 345.283 42.0029C344.476 42.0029 343.785 41.8876 343.208 41.8876C341.94 41.7723 341.133 41.657 341.133 41.657C341.018 41.657 340.788 41.5418 340.903 41.4265C340.903 41.3112 341.018 41.196 341.249 41.196Z" fill="black"/>
<path d="M342.286 41.5418C342.286 41.5418 342.978 41.5418 344.015 41.5418C344.476 41.5418 345.168 41.5418 345.744 41.5418C346.436 41.5418 347.012 41.5418 347.704 41.6571C348.396 41.6571 349.087 41.7723 349.664 41.7723C350.24 41.7723 350.932 41.8876 351.393 41.8876C352.43 42.0029 353.122 42.1181 353.122 42.1181C353.122 42.1181 352.43 42.1181 351.393 42.1181C350.932 42.1181 350.24 42.1181 349.664 42.1181C348.972 42.1181 348.396 42.1181 347.704 42.0029C347.012 42.0029 346.321 41.8876 345.744 41.8876C345.168 41.8876 344.476 41.7723 344.015 41.7723C342.978 41.5418 342.286 41.5418 342.286 41.5418Z" fill="#51646E"/>
<path d="M359.346 43.9625L348.28 42.5792C348.165 42.464 347.819 42.0029 347.819 42.0029L346.782 41.8876C346.666 41.8876 346.666 41.7723 346.666 41.7723C346.666 41.657 346.782 41.657 346.782 41.657L347.934 41.7723C348.05 41.8876 348.395 42.3487 348.395 42.3487L359.462 43.3862C359.692 43.3862 359.808 43.6167 359.808 43.732C359.808 43.8472 359.462 43.9625 359.346 43.9625Z" fill="black"/>
<path d="M323.381 41.196C323.381 41.196 324.188 41.196 325.456 41.196C326.032 41.196 326.724 41.196 327.531 41.3112C328.338 41.3112 329.145 41.4265 329.952 41.4265C330.759 41.4265 331.565 41.5418 332.372 41.5418C333.179 41.5418 333.871 41.657 334.447 41.657C335.715 41.7723 336.522 41.8876 336.522 41.8876C336.638 41.8876 336.868 42.0029 336.753 42.1181C336.753 42.2334 336.638 42.3487 336.407 42.3487C336.407 42.3487 335.6 42.3487 334.332 42.3487C333.756 42.3487 333.064 42.3487 332.257 42.2334C331.45 42.2334 330.643 42.1181 329.836 42.1181C329.029 42.1181 328.223 42.0029 327.416 42.0029C326.609 42.0029 325.917 41.8876 325.341 41.8876C324.073 41.7723 323.266 41.657 323.266 41.657C323.15 41.657 322.92 41.5418 323.035 41.4265C323.035 41.3112 323.266 41.196 323.381 41.196Z" fill="black"/>
<path d="M324.418 41.5418C324.418 41.5418 325.11 41.5418 326.147 41.5418C326.609 41.5418 327.3 41.5418 327.877 41.5418C328.568 41.5418 329.145 41.5418 329.836 41.6571C330.528 41.6571 331.219 41.7723 331.796 41.7723C332.372 41.7723 333.064 41.8876 333.525 41.8876C334.562 42.0029 335.254 42.1181 335.254 42.1181C335.254 42.1181 334.562 42.1181 333.525 42.1181C333.064 42.1181 332.372 42.1181 331.796 42.1181C331.104 42.1181 330.528 42.1181 329.836 42.0029C329.145 42.0029 328.453 41.8876 327.877 41.8876C327.3 41.8876 326.609 41.7723 326.147 41.7723C325.11 41.5418 324.418 41.5418 324.418 41.5418Z" fill="#51646E"/>
<path d="M341.479 43.9625L330.413 42.5792C330.297 42.464 329.951 42.0029 329.951 42.0029L328.914 41.8876C328.799 41.8876 328.799 41.7723 328.799 41.7723C328.799 41.657 328.914 41.657 328.914 41.657L330.067 41.7723C330.182 41.8876 330.528 42.3487 330.528 42.3487L341.594 43.3862C341.825 43.3862 341.94 43.6167 341.94 43.732C341.825 43.8472 341.709 43.9625 341.479 43.9625Z" fill="black"/>
<path d="M343.9 43.5014H365.11C368.338 43.5014 371.22 45 373.064 47.536L373.871 49.1498C374.447 50.1873 375.024 51.34 375.6 52.2622C377.099 54.5677 376.637 55.7205 376.637 58.9481V67.2478C376.637 70.0144 374.447 72.2046 371.681 72.2046H343.784H315.888C313.122 72.2046 310.931 70.0144 310.931 67.2478V58.9481C310.931 55.7205 310.586 54.5677 311.969 52.2622C312.66 51.2248 313.237 50.1873 313.698 49.1498L314.505 47.536C316.349 45 319.346 43.5014 322.459 43.5014H343.9Z" fill="#F13E23"/>
<path d="M366.378 63.098C365.11 63.3285 363.842 63.9049 362.689 64.5965C361.191 65.634 359.346 66.2104 357.502 66.2104H343.784H330.067C328.222 66.2104 326.378 65.634 324.88 64.5965C323.842 63.7896 322.574 63.3285 321.191 63.098L315.196 62.0605C313.813 61.83 312.545 61.2536 311.392 60.4467V67.2478C311.392 69.6686 313.352 71.6282 315.773 71.6282H371.681C374.101 71.6282 376.061 69.6686 376.061 67.2478V60.4467C374.908 61.2536 373.64 61.83 372.257 62.0605L366.378 63.098Z" fill="#B3230D"/>
<path d="M312.084 55.0288L311.853 57.6801C311.738 59.0634 312.776 60.3314 314.274 60.3314L322.228 61.4841C322.804 61.4841 323.265 60.9078 323.15 60.3314L322.343 57.1037C321.997 55.6052 320.845 54.5677 319.346 54.2219L314.505 53.1844C313.237 52.9539 312.199 53.8761 312.084 55.0288Z" fill="#CFCFCF"/>
<path d="M314.274 59.755C313.698 59.755 313.236 59.5245 312.891 59.1787C312.545 58.8328 312.43 58.3717 312.43 57.7954L312.66 55.1441C312.66 54.4524 313.352 53.8761 314.043 53.8761C314.159 53.8761 314.274 53.8761 314.274 53.8761L319.115 54.9135C320.383 55.1441 321.306 56.0663 321.651 57.3343L322.458 60.5619C322.458 60.6772 322.458 60.7925 322.458 60.7925C322.458 60.7925 322.343 60.9078 322.228 60.9078L314.274 59.755Z" fill="#F2F2F2"/>
<path d="M314.159 59.1787C313.583 59.1787 313.121 58.6023 313.121 58.0259L313.352 55.3746C313.352 54.7983 313.928 54.3372 314.505 54.3372C315.081 54.3372 315.542 54.9135 315.542 55.4899L315.312 58.1412C315.312 58.7176 314.851 59.1787 314.159 59.1787Z" fill="#EC944C"/>
<path d="M321.075 57.9107C321.075 59.0634 320.153 59.9856 319 59.9856C317.847 59.9856 316.925 59.0634 316.925 57.9107C316.925 56.7579 317.847 55.8357 319 55.8357C320.153 55.8357 321.075 56.7579 321.075 57.9107Z" fill="#707070"/>
<path d="M320.384 57.9106C320.384 58.6023 319.807 59.1787 319.116 59.1787C318.424 59.1787 317.848 58.6023 317.848 57.9106C317.848 57.219 318.424 56.6426 319.116 56.6426C319.807 56.5274 320.384 57.1037 320.384 57.9106Z" fill="#F2F2F2"/>
<path d="M375.715 55.0288L375.946 57.6801C376.061 59.0634 375.024 60.3314 373.525 60.3314L365.571 61.4841C364.995 61.4841 364.534 60.9078 364.649 60.3314L365.456 57.1037C365.802 55.6052 366.954 54.5677 368.453 54.2219L373.295 53.1844C374.447 52.9539 375.6 53.8761 375.715 55.0288Z" fill="#CFCFCF"/>
<path d="M373.41 59.755C373.986 59.755 374.447 59.5245 374.793 59.1787C375.139 58.8328 375.254 58.3717 375.254 57.7954L375.024 55.1441C375.024 54.4524 374.332 53.8761 373.64 53.8761C373.525 53.8761 373.41 53.8761 373.41 53.8761L368.568 54.9135C367.3 55.1441 366.378 56.0663 366.032 57.3343L365.225 60.5619C365.225 60.6772 365.225 60.7925 365.225 60.7925C365.225 60.7925 365.341 60.9078 365.456 60.9078L373.41 59.755Z" fill="#F2F2F2"/>
<path d="M373.525 59.1787C374.102 59.1787 374.563 58.6023 374.563 58.0259L374.332 55.3746C374.332 54.7983 373.756 54.3372 373.179 54.3372C372.603 54.3372 372.142 54.9135 372.142 55.4899L372.373 58.1412C372.373 58.7176 372.949 59.1787 373.525 59.1787Z" fill="#EC944C"/>
<path d="M366.609 57.9107C366.609 59.0634 367.531 59.9856 368.684 59.9856C369.836 59.9856 370.759 59.0634 370.759 57.9107C370.759 56.7579 369.836 55.8357 368.684 55.8357C367.531 55.8357 366.609 56.7579 366.609 57.9107Z" fill="#707070"/>
<path d="M367.3 57.9106C367.3 58.6023 367.877 59.1787 368.568 59.1787C369.26 59.1787 369.836 58.6023 369.836 57.9106C369.836 57.219 369.26 56.6426 368.568 56.6426C367.992 56.5274 367.3 57.1037 367.3 57.9106Z" fill="#F2F2F2"/>
<path d="M363.842 68.8617L363.381 67.8242C362.689 66.3257 361.652 65.5187 360.499 65.5187H343.784H327.07C325.917 65.5187 324.879 66.3257 324.188 67.8242L323.727 68.8617C323.381 69.6686 323.727 70.7061 324.303 70.7061H363.266C363.957 70.8213 364.303 69.6686 363.842 68.8617Z" fill="#212121"/>
<path d="M340.557 70.8213H341.364V65.634H340.557V70.8213ZM337.675 70.8213H338.482V65.634H337.675V70.8213ZM343.438 65.634V70.8213H344.245V65.634H343.9H343.438ZM331.911 70.8213H332.718V65.634H331.911V70.8213ZM334.793 70.8213H335.6V65.634H334.793V70.8213ZM329.029 70.8213H329.836V65.634H329.029V70.8213ZM346.436 70.8213H347.242V65.634H346.436V70.8213ZM349.317 70.8213H350.124V65.634H349.317V70.8213ZM360.845 65.634V70.8213H361.652V65.9798C361.421 65.7493 361.191 65.634 360.845 65.634ZM326.032 70.8213H326.839V65.634C326.608 65.634 326.263 65.7493 326.032 65.8646V70.8213ZM357.963 70.8213H358.77V65.634H357.963V70.8213ZM352.199 70.8213H353.006V65.634H352.199V70.8213ZM355.081 70.8213H355.888V65.634H355.081V70.8213Z" fill="#454545"/>
<path d="M343.9 57.9107C340.902 57.9107 337.79 57.7954 334.793 57.4496L326.378 56.5274C325.11 56.4121 323.957 55.7205 323.266 54.7983C322.574 53.8761 321.652 53.2997 320.614 53.0692C320.038 52.9539 319.577 52.6081 319.346 52.147C319.116 51.6859 319 51.1095 319.231 50.6484L320.384 46.0375C320.73 45 321.767 44.4236 322.805 44.4236H365.11C366.147 44.4236 367.185 45.1153 367.531 46.0375L368.683 50.7637C368.914 51.2248 368.799 51.8012 368.568 52.2622C368.338 52.7233 367.877 53.0692 367.3 53.1844C366.263 53.415 365.225 53.9914 364.649 54.9135C363.842 55.951 362.804 56.5274 361.536 56.6426L353.122 57.5648C349.894 57.6801 346.897 57.9107 343.9 57.9107ZM320.614 52.6081C321.767 52.8386 322.804 53.5303 323.496 54.4524C324.188 55.3746 325.225 55.951 326.378 56.0663L334.793 56.9885C340.787 57.6801 346.897 57.6801 352.891 56.9885L361.306 56.0663C362.459 55.951 363.496 55.3746 364.188 54.4524C364.879 53.5303 365.917 52.8386 367.07 52.6081C367.531 52.4928 367.877 52.2622 368.107 51.8011C368.338 51.4553 368.338 50.9942 368.222 50.5331L367.07 45.8069C366.724 45 365.917 44.4236 364.995 44.4236H322.459C321.536 44.4236 320.73 45 320.384 45.8069L319.231 50.4179C319.116 50.879 319.116 51.3401 319.346 51.6859C319.807 52.2622 320.153 52.4928 320.614 52.6081Z" fill="#8F1C0A"/>
<path d="M363.381 57.1037L354.044 58.0259C350.701 58.3718 347.243 58.487 343.9 58.487C340.557 58.487 337.099 58.3718 333.756 58.0259L324.419 57.1037C324.188 57.1037 323.958 57.3343 324.073 57.5648L324.765 59.2939C325.687 61.4841 327.992 63.098 330.644 63.3285L339.866 64.1354C342.517 64.366 345.283 64.366 347.935 64.1354L357.157 63.3285C359.808 63.098 362.113 61.4841 363.036 59.2939L363.727 57.5648C363.958 57.3343 363.727 57.1037 363.381 57.1037Z" fill="#212121"/>
<path d="M354.044 59.6398C350.701 59.9856 347.243 60.1008 343.9 60.1008C340.557 60.1008 337.098 59.9856 333.756 59.6398L324.418 58.7176L324.649 59.4092C324.649 59.5245 324.764 59.5245 324.764 59.6398L333.64 60.4467C336.983 60.7925 340.441 60.9078 343.9 60.9078C347.358 60.9078 350.701 60.7925 354.159 60.4467L363.035 59.6398C363.035 59.5245 363.15 59.5245 363.15 59.4092L363.381 58.7176L354.044 59.6398ZM343.9 62.0605C340.557 62.0605 337.098 61.9452 333.756 61.5994L325.571 60.7925C325.802 61.1383 326.147 61.3689 326.378 61.7147L333.64 62.4063C336.983 62.7521 340.441 62.8674 343.9 62.8674C347.358 62.8674 350.701 62.7521 354.159 62.4063L361.421 61.7147C361.767 61.4841 361.998 61.1383 362.228 60.7925L354.044 61.5994C350.701 61.83 347.243 62.0605 343.9 62.0605Z" fill="#454545"/>
<path d="M346.09 61.3689C346.09 62.6369 345.053 63.6743 343.785 63.6743C342.517 63.6743 341.479 62.6369 341.479 61.3689C341.479 60.1008 342.517 59.0634 343.785 59.0634C345.168 59.1787 346.09 60.2161 346.09 61.3689Z" fill="#D6D6D6"/>
<path d="M343.9 62.9827C344.791 62.9827 345.514 62.2602 345.514 61.3689C345.514 60.4776 344.791 59.755 343.9 59.755C343.009 59.755 342.286 60.4776 342.286 61.3689C342.286 62.2602 343.009 62.9827 343.9 62.9827Z" fill="#707070"/>
<path d="M312.315 66.0951L312.43 67.9395C312.43 68.7464 313.122 69.5533 313.929 69.6686L318.77 70.706C319.692 70.9366 320.384 70.0144 320.038 69.0922L319.577 67.9395C319.231 67.0173 318.424 66.3256 317.617 65.9798L314.159 64.7118C313.237 64.4813 312.315 65.1729 312.315 66.0951Z" fill="#212121"/>
<path d="M317.387 67.9395C317.387 68.7464 316.811 69.3228 316.004 69.3228C315.197 69.3228 314.62 68.7464 314.62 67.9395C314.62 67.1325 315.197 66.5562 316.004 66.5562C316.811 66.5562 317.387 67.2478 317.387 67.9395Z" fill="#D6D6D6"/>
<path d="M375.485 66.0951L375.369 67.9395C375.369 68.7464 374.678 69.5533 373.871 69.6686L369.029 70.706C368.107 70.9366 367.416 70.0144 367.761 69.0922L368.222 67.9395C368.568 67.0173 369.375 66.3256 370.182 65.9798L373.64 64.7118C374.563 64.4813 375.485 65.1729 375.485 66.0951Z" fill="#212121"/>
<path d="M370.297 67.9395C370.297 68.7464 370.874 69.3228 371.681 69.3228C372.488 69.3228 373.064 68.7464 373.064 67.9395C373.064 67.1325 372.488 66.5562 371.681 66.5562C370.989 66.5562 370.297 67.2478 370.297 67.9395Z" fill="#D6D6D6"/>
<path d="M317.963 44.6542L318.77 43.1556C318.194 43.1556 317.617 42.9251 317.271 42.3487L316.81 41.4265C316.349 40.5043 315.312 39.8127 314.159 39.8127H312.199C311.277 39.8127 310.47 40.2738 310.009 40.9654L309.779 41.3112L317.617 44.7695C317.733 44.7695 317.848 44.6542 317.963 44.6542Z" fill="#F13E23"/>
<path d="M309.894 41.3112L309.663 41.7723C309.087 42.5792 309.433 43.732 310.355 44.1931L315.542 46.6138C316.234 45.9222 316.926 45.3458 317.733 44.8847L309.894 41.3112Z" fill="#212121"/>
<path d="M369.721 44.6542L368.914 43.1556C369.491 43.1556 370.067 42.9251 370.413 42.3487L370.874 41.4265C371.335 40.5043 372.373 39.8127 373.525 39.8127H375.485C376.407 39.8127 377.214 40.2738 377.675 40.9654L377.906 41.3112L370.067 44.7695C369.952 44.7695 369.837 44.6542 369.721 44.6542Z" fill="#F13E23"/>
<path d="M377.906 41.3112L378.136 41.7723C378.713 42.5792 378.367 43.732 377.445 44.1931L372.257 46.6138C371.566 45.9222 370.874 45.3458 370.067 44.8847L377.906 41.3112Z" fill="#212121"/>
</g>
<g filter="url(#filter2_d_3986_7969)">
<path d="M304.618 185.136C325.946 185.136 343.236 167.846 343.236 146.518C343.236 125.19 325.946 107.9 304.618 107.9C283.29 107.9 266 125.19 266 146.518C266 167.846 283.29 185.136 304.618 185.136Z" fill="white"/>
<path d="M311.964 176.901C312.298 176.344 312.743 175.899 313.299 175.676C313.744 175.565 313.967 175.676 314.301 175.788C313.967 174.675 313.744 172.783 314.746 172.004C315.08 171.781 315.414 171.67 315.748 171.559V155.533H314.635L304.841 139.062L295.047 155.533H293.601V171.67C293.935 171.781 294.157 171.893 294.38 172.115C295.381 173.005 295.159 174.897 294.825 175.899C295.159 175.788 295.381 175.676 295.827 175.788C296.383 175.899 296.828 176.455 297.162 177.012C297.718 177.902 297.718 179.46 297.718 180.573H311.296C311.407 179.349 311.407 177.902 311.964 176.901Z" fill="#F9B39A"/>
<path d="M310.628 161.209H298.497V180.684H310.628V161.209Z" fill="#96281B"/>
<path d="M318.085 171.892C317.64 170.78 317.64 169.333 318.864 168.442C320.311 167.33 322.091 167.997 323.093 168.888C322.982 168.109 322.87 166.884 323.538 166.217C323.983 165.66 324.651 165.438 325.653 165.438C326.543 165.549 327.322 165.771 328.212 166.105V155.644H317.194V171.781C317.528 171.67 317.751 171.781 318.085 171.892Z" fill="#F9B39A"/>
<path d="M285.81 166.105C286.367 166.884 286.367 167.997 286.255 168.776C287.257 167.886 289.038 167.33 290.484 168.331C291.709 169.333 291.597 170.78 291.263 171.781C291.597 171.67 291.931 171.559 292.376 171.559V155.421H281.247V165.883C282.026 165.549 282.917 165.326 283.696 165.215C284.697 165.326 285.365 165.549 285.81 166.105Z" fill="#F9B39A"/>
<path d="M309.07 141.733L304.618 135.278L300.278 141.733H281.247V155.533H295.159L304.952 139.062L314.746 155.533H328.101V141.733H309.07Z" fill="#E89277"/>
<path d="M317.194 150.747H315.859V155.533H317.194V150.747Z" fill="white"/>
<path d="M317.194 171.67V155.533H315.859V171.559C316.304 171.559 316.749 171.559 317.194 171.67Z" fill="white"/>
<path d="M293.712 171.67V155.533H292.376V171.67C292.821 171.559 293.266 171.559 293.712 171.67Z" fill="white"/>
<path d="M293.712 150.747H292.376V155.533H293.712V150.747Z" fill="white"/>
<path d="M324.762 128.6H310.405H299.053H284.586L275.794 152.639H293.711L304.618 135.278L315.97 152.639H333.665L324.762 128.6Z" fill="#E84C43"/>
<path d="M278.242 150.747H292.265L304.507 132.941V130.937L291.374 149.523L278.242 150.747Z" fill="#CC2521"/>
<path d="M330.772 150.747H316.86L304.507 132.941V130.937L317.639 149.523L330.772 150.747Z" fill="#CC2521"/>
<path d="M294.936 124.705H289.594V132.941H294.936V124.705Z" fill="#CC2521"/>
<path d="M308.402 147.408H301.057V157.87H308.402V147.408Z" fill="#77A7FB"/>
<path d="M308.513 158.092H300.834V147.297H308.513V158.092ZM301.279 157.758H308.179V147.631H301.279V157.758Z" fill="white"/>
<path d="M308.402 150.525H304.952V147.408H304.618V150.525H301.057V150.97H304.618V157.87H304.952V150.97H308.402V150.525Z" fill="white"/>
<path d="M334.889 171.447C334.889 170.112 334.889 163.991 336.002 161.988C337.115 159.762 335.223 157.87 332.997 159.873C330.994 161.654 329.325 164.325 329.547 166.662C331.551 167.886 333.331 169.667 334.889 171.447Z" fill="#FBD099"/>
<path d="M318.863 173.784C318.641 173.451 318.418 173.117 318.307 172.894C317.417 172.004 315.97 172.004 315.302 172.56C314.412 173.339 314.968 175.454 315.302 176.233C316.192 177.902 318.53 182.02 321.646 185.47C323.649 186.806 325.541 187.139 326.876 186.249C327.322 185.915 327.655 184.914 327.767 184.023C323.871 181.018 320.533 176.344 318.863 173.784Z" fill="#FBD099"/>
<path d="M323.538 170.334C322.758 169.11 320.867 167.775 319.197 168.999C317.639 170.223 318.641 172.004 319.197 173.117C320.755 175.454 324.205 180.239 327.989 183.355C331.328 184.357 332.997 183.467 333.554 181.13C328.546 177.568 324.317 171.559 323.538 170.334Z" fill="#FBD099"/>
<path d="M314.968 177.234C314.968 177.123 314.857 177.123 314.857 177.012C314.634 176.678 314.301 176.233 313.521 176.455C313.188 176.567 312.631 176.901 312.52 177.234C312.186 177.68 312.186 178.459 312.075 179.126C312.075 179.238 312.075 179.349 312.075 179.46C312.409 182.91 315.191 186.583 317.305 187.362C319.865 188.252 320.978 187.473 321.201 186.026C318.196 182.91 315.97 179.238 314.968 177.234Z" fill="#FBD099"/>
<path d="M337.894 176.901C337.894 176.789 337.783 176.789 337.783 176.678C337.004 175.454 335.446 173.117 333.554 171.113C332.441 169.889 331.105 168.665 329.659 167.775C328.323 166.884 326.876 166.328 325.43 166.217C324.762 166.105 324.317 166.328 323.983 166.662C323.426 167.441 323.76 169.11 323.983 169.667L324.094 169.889C324.317 170.223 328.768 176.901 334.333 180.796C337.672 181.686 338.451 178.793 337.894 176.901Z" fill="#FBD099"/>
<path d="M322.981 170.78C322.314 169.889 321.201 168.776 320.088 169.667C318.864 170.557 319.865 172.115 320.31 172.672C320.755 173.339 323.538 171.559 322.981 170.78Z" fill="#F4B073"/>
<path d="M327.878 167.886C327.099 167.218 325.875 166.328 324.873 167.441C323.872 168.554 325.096 169.778 325.652 170.334C326.32 170.78 328.657 168.554 327.878 167.886Z" fill="#F4B073"/>
<path d="M318.196 174.341C317.64 173.562 316.749 172.671 315.748 173.339C314.746 174.007 315.525 175.342 315.859 175.899C316.304 176.455 318.753 175.009 318.196 174.341Z" fill="#F4B073"/>
<path d="M315.08 178.681C314.635 177.902 314.301 176.789 313.299 177.346C312.297 177.902 312.743 179.238 313.076 179.794C313.41 180.351 315.525 179.46 315.08 178.681Z" fill="#F4B073"/>
<path d="M280.245 166.551C280.357 164.213 278.687 161.654 276.684 159.873C274.458 157.87 272.566 159.762 273.679 161.988C274.569 163.88 274.681 169.222 274.792 171.113C276.239 169.333 278.131 167.663 280.245 166.551Z" fill="#FBD099"/>
<path d="M294.045 172.672C293.377 172.115 291.931 172.115 291.04 173.005C290.929 173.228 290.706 173.562 290.484 173.896C288.814 176.455 285.476 181.018 281.581 184.135C281.581 185.025 281.914 186.026 282.471 186.36C283.806 187.251 285.698 186.806 287.702 185.581C290.818 182.131 293.155 178.014 294.045 176.344C294.379 175.676 294.824 173.451 294.045 172.672Z" fill="#FBD099"/>
<path d="M290.039 173.228C290.596 172.004 291.597 170.223 290.039 169.11C288.481 167.886 286.589 169.333 285.699 170.446C284.92 171.67 280.802 177.568 275.46 181.352C276.016 183.689 277.686 184.58 281.025 183.578C285.031 180.351 288.37 175.565 290.039 173.228Z" fill="#FBD099"/>
<path d="M296.828 177.346C296.605 177.012 296.049 176.678 295.826 176.567C295.047 176.344 294.713 176.901 294.491 177.123C294.491 177.234 294.379 177.234 294.379 177.346C293.266 179.238 291.152 183.022 288.147 186.138C288.37 187.585 289.371 188.475 292.042 187.473C294.157 186.694 296.828 182.91 297.273 179.572C297.273 179.46 297.273 179.349 297.273 179.238C297.273 178.459 297.162 177.791 296.828 177.346Z" fill="#FBD099"/>
<path d="M285.253 166.551C284.919 166.217 284.474 166.105 283.807 166.105C282.471 166.217 281.247 166.662 280.023 167.441C278.353 168.442 276.795 169.889 275.46 171.336C273.679 173.339 272.232 175.454 271.453 176.678C271.453 176.789 271.342 176.789 271.342 176.901C270.785 178.793 271.564 181.575 274.903 180.685C280.468 176.789 284.919 170.001 285.142 169.778L285.253 169.555C285.476 168.999 285.81 167.33 285.253 166.551Z" fill="#FBD099"/>
<path d="M286.366 170.78C287.034 169.889 288.147 168.776 289.26 169.667C290.484 170.557 289.482 172.115 289.037 172.672C288.592 173.451 285.698 171.67 286.366 170.78Z" fill="#F4B073"/>
<path d="M281.358 167.997C282.137 167.33 283.361 166.439 284.363 167.552C285.365 168.665 284.14 169.889 283.584 170.446C283.028 170.891 280.69 168.665 281.358 167.997Z" fill="#F4B073"/>
<path d="M291.041 174.341C291.597 173.562 292.488 172.671 293.489 173.339C294.491 174.007 293.712 175.342 293.378 175.899C293.044 176.455 290.596 175.12 291.041 174.341Z" fill="#F4B073"/>
<path d="M294.157 178.793C294.602 178.013 294.936 176.901 295.938 177.457C296.939 178.013 296.494 179.349 296.16 179.905C295.937 180.462 293.712 179.46 294.157 178.793Z" fill="#F4B073"/>
<path d="M300.945 171.67C300.945 172.115 300.611 172.449 300.166 172.449C299.721 172.449 299.387 172.115 299.387 171.67C299.387 171.225 299.721 170.891 300.166 170.891C300.611 170.891 300.945 171.225 300.945 171.67Z" fill="#E89277"/>
</g>
<defs>
<filter id="filter0_d_3986_7969" x="165" y="50.9" width="100" height="97.2184" filterUnits="userSpaceOnUse" color-interpolation-filters="sRGB">
<feFlood flood-opacity="0" result="BackgroundImageFix"/>
<feColorMatrix in="SourceAlpha" type="matrix" values="0 0 0 0 0 0 0 0 0 0 0 0 0 0 0 0 0 0 127 0" result="hardAlpha"/>
<feOffset dx="5" dy="5"/>
<feGaussianBlur stdDeviation="5"/>
<feComposite in2="hardAlpha" operator="out"/>
<feColorMatrix type="matrix" values="0 0 0 0 0.1 0 0 0 0 0.505 0 0 0 0 1 0 0 0 0.4 0"/>
<feBlend mode="normal" in2="BackgroundImageFix" result="effect1_dropShadow_3986_7969"/>
<feBlend mode="normal" in="SourceGraphic" in2="effect1_dropShadow_3986_7969" result="shape"/>
</filter>
<filter id="filter1_d_3986_7969" x="298.9" y="0" width="100" height="100" filterUnits="userSpaceOnUse" color-interpolation-filters="sRGB">
<feFlood flood-opacity="0" result="BackgroundImageFix"/>
<feColorMatrix in="SourceAlpha" type="matrix" values="0 0 0 0 0 0 0 0 0 0 0 0 0 0 0 0 0 0 127 0" result="hardAlpha"/>
<feOffset dx="5" dy="5"/>
<feGaussianBlur stdDeviation="5"/>
<feComposite in2="hardAlpha" operator="out"/>
<feColorMatrix type="matrix" values="0 0 0 0 0.1 0 0 0 0 0.505 0 0 0 0 1 0 0 0 0.4 0"/>
<feBlend mode="normal" in2="BackgroundImageFix" result="effect1_dropShadow_3986_7969"/>
<feBlend mode="normal" in="SourceGraphic" in2="effect1_dropShadow_3986_7969" result="shape"/>
</filter>
<filter id="filter2_d_3986_7969" x="261" y="102.9" width="97.2361" height="100" filterUnits="userSpaceOnUse" color-interpolation-filters="sRGB">
<feFlood flood-opacity="0" result="BackgroundImageFix"/>
<feColorMatrix in="SourceAlpha" type="matrix" values="0 0 0 0 0 0 0 0 0 0 0 0 0 0 0 0 0 0 127 0" result="hardAlpha"/>
<feOffset dx="5" dy="5"/>
<feGaussianBlur stdDeviation="5"/>
<feComposite in2="hardAlpha" operator="out"/>
<feColorMatrix type="matrix" values="0 0 0 0 0.1 0 0 0 0 0.505 0 0 0 0 1 0 0 0 0.4 0"/>
<feBlend mode="normal" in2="BackgroundImageFix" result="effect1_dropShadow_3986_7969"/>
<feBlend mode="normal" in="SourceGraphic" in2="effect1_dropShadow_3986_7969" result="shape"/>
</filter>
</defs>
</svg>
